<svg width="66" height="45" viewBox="0 0 66 45" fill="none" xmlns="http://www.w3.org/2000/svg">
<path d="M48.9384 31.2875H16.6135C16.1597 31.2875 15.792 30.9192 15.792 30.4647V9.16069C15.792 8.70612 16.1597 8.33789 16.6135 8.33789H48.9384C49.3923 8.33789 49.76 8.70612 49.76 9.16069V30.4647C49.76 30.9192 49.3923 31.2875 48.9384 31.2875ZM17.4351 29.6444H48.1194V9.98349H17.4351V29.6444Z" fill="#E89247"/>
<path d="M32.7792 24.7305C32.5814 24.7305 32.3837 24.6593 32.2264 24.5171L16.064 9.76764C15.813 9.53908 15.7293 9.18101 15.851 8.86357C15.9727 8.54613 16.277 8.33789 16.6168 8.33789H48.9416C49.2814 8.33789 49.5857 8.54613 49.7074 8.86357C49.8291 9.18101 49.7454 9.53908 49.4944 9.76764L33.332 24.5171C33.1748 24.6593 32.977 24.7305 32.7792 24.7305ZM18.7341 9.98096L32.7767 22.7979L46.8193 9.98096H18.7316H18.7341Z" fill="#E89247"/>
<path d="M48.9381 31.2883H16.6133C16.2609 31.2883 15.9464 31.0623 15.8349 30.7271C15.7233 30.3919 15.8399 30.0211 16.1214 29.8103L28.9291 20.1932C29.2917 19.9215 29.8064 19.9951 30.0778 20.3583C30.3491 20.7214 30.2756 21.237 29.913 21.5087L19.0755 29.6478H46.476L35.783 21.6179C35.4204 21.3462 35.3469 20.8306 35.6182 20.4675C35.8895 20.1043 36.4043 20.0307 36.7669 20.3024L49.4301 29.8103C49.7115 30.0237 49.8282 30.3919 49.7166 30.7271C49.605 31.0623 49.2906 31.2883 48.9381 31.2883Z" fill="#E89247"/>
<path d="M58.5944 38.6336H6.95779C6.5039 38.6336 6.13623 38.2654 6.13623 37.8108V3.21248C6.13623 1.4399 7.5765 0 9.34387 0H56.2032C57.9731 0 59.4109 1.44244 59.4109 3.21248V37.8133C59.4109 38.2679 59.0432 38.6362 58.5918 38.6362L58.5944 38.6336ZM7.78188 36.9905H57.7754V3.21248C57.7754 2.34651 57.073 1.64307 56.2083 1.64307H9.34893C8.48427 1.64307 7.78188 2.34651 7.78188 3.21248V36.9905Z" fill="#E89247"/>
<path d="M60.0424 44.045H5.51258C2.4723 44.045 0 41.569 0 38.5241V37.813C0 37.3585 0.367687 36.9902 0.821573 36.9902H64.7359C65.1898 36.9902 65.5575 37.3585 65.5575 37.813V38.5241C65.5575 41.569 63.0852 44.045 60.0449 44.045H60.0424ZM1.64313 38.6333C1.70145 40.7208 3.41557 42.3994 5.51258 42.3994H60.0424C62.1394 42.3994 63.8535 40.7182 63.9118 38.6333H1.64059H1.64313Z" fill="#E89247"/>
</svg>
