<svg width="57" height="43" viewBox="0 0 57 43" fill="none" xmlns="http://www.w3.org/2000/svg">
<path d="M45.828 42.519C44.9972 42.519 44.1903 42.1904 43.5659 41.5624L36.2428 34.2282H4.17484C1.87312 34.2282 0 32.3522 0 30.047V4.18115C0 1.87595 1.87312 0 4.17484 0H51.9421C54.2438 0 56.1169 1.87595 56.1169 4.18115V30.047C56.1169 32.3522 54.2438 34.2282 51.9421 34.2282H49.0768V39.2758C49.0768 40.6086 48.3122 41.7532 47.0847 42.2619C46.6719 42.4315 46.246 42.5163 45.828 42.5163V42.519ZM4.17484 1.71432C2.81762 1.71432 1.71174 2.81923 1.71174 4.18115V30.047C1.71174 31.4063 2.81497 32.5139 4.17484 32.5139H36.5973C36.8248 32.5139 37.0418 32.604 37.2031 32.7656L44.7776 40.3515C45.2274 40.802 45.8438 40.9239 46.4312 40.6801C47.0185 40.4363 47.3677 39.9117 47.3677 39.2758V33.3697C47.3677 32.8954 47.7514 32.5112 48.2223 32.5112H51.9447C53.3019 32.5112 54.4078 31.4037 54.4078 30.0444V4.1785C54.4078 2.81923 53.3019 1.71167 51.9447 1.71167H4.17484V1.71432Z" fill="#E89247"/>
<path d="M11.2786 22.6681C10.805 22.6681 10.4214 22.2839 10.4214 21.8097V11.6456C10.4214 11.1713 10.805 10.7871 11.2786 10.7871C11.7521 10.7871 12.1358 11.1713 12.1358 11.6456V21.8097C12.1358 22.2839 11.7521 22.6681 11.2786 22.6681Z" fill="#E89247"/>
<path d="M17.6863 22.6681C17.2127 22.6681 16.8291 22.2839 16.8291 21.8097V11.6456C16.8291 11.1713 17.2127 10.7871 17.6863 10.7871C18.1599 10.7871 18.5435 11.1713 18.5435 11.6456V21.8097C18.5435 22.2839 18.1599 22.6681 17.6863 22.6681Z" fill="#E89247"/>
<path d="M17.6861 17.5842H11.2756C10.8021 17.5842 10.4185 17.2 10.4185 16.7257C10.4185 16.2514 10.8021 15.8672 11.2756 15.8672H17.6861C18.1596 15.8672 18.5433 16.2514 18.5433 16.7257C18.5433 17.2 18.1596 17.5842 17.6861 17.5842Z" fill="#E89247"/>
<path d="M21.427 22.6681C20.9534 22.6681 20.5698 22.2839 20.5698 21.8097V11.6456C20.5698 11.1713 20.9534 10.7871 21.427 10.7871C21.9006 10.7871 22.2842 11.1713 22.2842 11.6456V21.8097C22.2842 22.2839 21.9006 22.6681 21.427 22.6681Z" fill="#E89247"/>
<path d="M25.9429 17.5842H21.4241C20.9505 17.5842 20.5669 17.2 20.5669 16.7257C20.5669 16.2514 20.9505 15.8672 21.4241 15.8672H25.9429C26.4164 15.8672 26.8 16.2514 26.8 16.7257C26.8 17.2 26.4164 17.5842 25.9429 17.5842Z" fill="#E89247"/>
<path d="M26.7686 12.5041H21.427C20.9534 12.5041 20.5698 12.1199 20.5698 11.6456C20.5698 11.1713 20.9534 10.7871 21.427 10.7871H26.7686C27.2422 10.7871 27.6258 11.1713 27.6258 11.6456C27.6258 12.1199 27.2422 12.5041 26.7686 12.5041Z" fill="#E89247"/>
<path d="M26.7686 22.6681H21.427C20.9534 22.6681 20.5698 22.2839 20.5698 21.8097C20.5698 21.3354 20.9534 20.9512 21.427 20.9512H26.7686C27.2422 20.9512 27.6258 21.3354 27.6258 21.8097C27.6258 22.2839 27.2422 22.6681 26.7686 22.6681Z" fill="#E89247"/>
<path d="M36.1159 22.6681H30.3298C29.8563 22.6681 29.4727 22.2839 29.4727 21.8097V11.6456C29.4727 11.1713 29.8563 10.7871 30.3298 10.7871C30.8034 10.7871 31.1844 11.1713 31.1844 11.6456V20.9512H36.1159C36.5895 20.9512 36.9731 21.3354 36.9731 21.8097C36.9731 22.2839 36.5895 22.6681 36.1159 22.6681Z" fill="#E89247"/>
<path d="M42.3011 17.5861H39.7639C39.2904 17.5861 38.9067 17.2019 38.9067 16.7276V11.6456C38.9067 11.1713 39.2904 10.7871 39.7639 10.7871H42.3011C44.1716 10.7871 45.6928 12.3107 45.6928 14.184C45.6928 16.0573 44.1716 17.5835 42.3011 17.5835V17.5861ZM40.6211 15.8718H42.3011C43.2271 15.8718 43.9811 15.1166 43.9811 14.1893C43.9811 13.2619 43.2271 12.5067 42.3011 12.5067H40.6211V15.8744V15.8718Z" fill="#E89247"/>
<path d="M39.7639 22.6662C39.2904 22.6662 38.9067 22.282 38.9067 21.8077V16.7257C38.9067 16.2514 39.2904 15.8672 39.7639 15.8672C40.2375 15.8672 40.6211 16.2514 40.6211 16.7257V21.8077C40.6211 22.282 40.2375 22.6662 39.7639 22.6662Z" fill="#E89247"/>
</svg>
