<svg width="58" height="47" viewBox="0 0 58 47" fill="none" xmlns="http://www.w3.org/2000/svg">
<path d="M56.9186 46.822H0.859874C0.386302 46.822 0.00268555 46.4378 0.00268555 45.9635V0.858487C0.00268555 0.3842 0.386302 0 0.859874 0H56.9186C57.3922 0 57.7758 0.3842 57.7758 0.858487V45.9635C57.7758 46.4378 57.3922 46.822 56.9186 46.822ZM1.71441 45.1077H56.0614V1.71697H1.71441V45.1077Z" fill="#E89247"/>
<path d="M56.9159 10.437H0.857188C0.383617 10.437 0 10.0528 0 9.57849V0.858487C0 0.3842 0.383617 0 0.857188 0H56.9159C57.3895 0 57.7705 0.3842 57.7705 0.858487V9.57849C57.7705 10.0528 57.3869 10.437 56.9159 10.437ZM1.71176 8.72265H56.0587V1.71697H1.71176V8.72265Z" fill="#E89247"/>
<path d="M5.20118 6.07873C4.9763 6.07873 4.75406 5.98599 4.59532 5.82701C4.43658 5.66803 4.34399 5.44546 4.34399 5.22024C4.34399 4.99502 4.43658 4.7751 4.59532 4.61347C4.9128 4.29551 5.48692 4.29551 5.8044 4.61347C5.96314 4.77245 6.05572 4.99502 6.05572 5.22024C6.05572 5.44546 5.96314 5.66538 5.8044 5.82701C5.64566 5.98599 5.42341 6.07873 5.19853 6.07873H5.20118Z" fill="#E89247"/>
<path d="M12.1197 6.07873C11.8948 6.07873 11.6726 5.98599 11.5138 5.82701C11.3551 5.66803 11.2651 5.44546 11.2651 5.22024C11.2651 4.99502 11.3551 4.77245 11.5138 4.61347C11.8339 4.29551 12.4054 4.29551 12.7255 4.61347C12.8843 4.77245 12.9769 4.99502 12.9769 5.22024C12.9769 5.44546 12.8869 5.66538 12.7255 5.82701C12.5668 5.98599 12.3446 6.07873 12.1197 6.07873Z" fill="#E89247"/>
<path d="M8.65895 6.07873C8.43407 6.07873 8.2145 5.98599 8.05311 5.82701C7.89437 5.66803 7.80176 5.44546 7.80176 5.22024C7.80176 4.99502 7.89437 4.7751 8.05311 4.61347C8.37059 4.29551 8.94469 4.29551 9.26481 4.61347C9.42355 4.77245 9.51617 4.99502 9.51617 5.22024C9.51617 5.44546 9.4262 5.66538 9.26481 5.82701C9.10607 5.98599 8.88383 6.07873 8.65895 6.07873Z" fill="#E89247"/>
<path d="M29.9355 17.7221H7.79667C7.3231 17.7221 6.93945 17.3379 6.93945 16.8637C6.93945 16.3894 7.3231 16.0078 7.79667 16.0078H29.9355C30.409 16.0078 30.7927 16.392 30.7927 16.8637C30.7927 17.3353 30.409 17.7221 29.9355 17.7221Z" fill="#E89247"/>
<path d="M49.3942 24.6506H7.79667C7.3231 24.6506 6.93945 24.2664 6.93945 23.7921C6.93945 23.3178 7.3231 22.9336 7.79667 22.9336H49.3942C49.8678 22.9336 50.2514 23.3178 50.2514 23.7921C50.2514 24.2664 49.8678 24.6506 49.3942 24.6506Z" fill="#E89247"/>
<path d="M49.3942 31.5783H7.79667C7.3231 31.5783 6.93945 31.1941 6.93945 30.7198C6.93945 30.2455 7.3231 29.8613 7.79667 29.8613H49.3942C49.8678 29.8613 50.2514 30.2455 50.2514 30.7198C50.2514 31.1941 49.8678 31.5783 49.3942 31.5783Z" fill="#E89247"/>
<path d="M49.3941 38.508H21.6333C21.1597 38.508 20.7761 38.1238 20.7761 37.6495C20.7761 37.1752 21.1597 36.791 21.6333 36.791H49.3941C49.8677 36.791 50.2513 37.1752 50.2513 37.6495C50.2513 38.1238 49.8677 38.508 49.3941 38.508Z" fill="#E89247"/>
</svg>
