<svg width="57" height="51" viewBox="0 0 57 51" fill="none" xmlns="http://www.w3.org/2000/svg">
<path d="M9.61944 38.8944C5.27528 38.8944 1.32533 35.9215 0.267074 31.5125C-0.971091 26.3483 2.21427 21.1365 7.37064 19.8938L21.4905 16.4943C21.7101 16.4413 21.9429 16.4784 22.1387 16.5976C22.3318 16.7169 22.472 16.9076 22.5249 17.1276L26.6204 34.194C26.7315 34.655 26.4484 35.116 25.9881 35.2273L11.8682 38.6268C11.1169 38.807 10.3629 38.8944 9.61944 38.8944ZM21.0593 18.3623L7.77278 21.5604C3.53445 22.5805 0.915271 26.865 1.93385 31.1098C2.95242 35.3545 7.23045 37.9803 11.4688 36.9575L24.7552 33.7594L21.0593 18.3596V18.3623Z" fill="#E89247"/>
<path d="M53.8204 39.414C53.6961 39.414 53.5717 39.3875 53.4553 39.3318L50.0768 37.7288C42.5949 34.1783 34.0389 33.2906 25.9882 35.2275C25.7686 35.2805 25.5358 35.2434 25.34 35.1242C25.1469 35.005 25.0066 34.8142 24.9537 34.5943L20.8583 17.5279C20.8054 17.3079 20.8424 17.0748 20.9614 16.8787C21.0805 16.6853 21.271 16.5475 21.4906 16.4918C29.5413 14.5523 36.7586 9.86772 41.8118 3.29923L44.0924 0.334274C44.2934 0.0719583 44.6268 -0.0499255 44.9496 0.0189654C45.2723 0.0878563 45.5263 0.336923 45.603 0.657531L54.6512 38.3541C54.7279 38.6747 54.6141 39.0112 54.3575 39.2205C54.2014 39.3477 54.0109 39.4113 53.8178 39.4113L53.8204 39.414ZM34.4675 32.509C40.0868 32.509 45.6877 33.7464 50.8097 36.1788L52.569 37.0134L44.3569 2.8011L43.169 4.34584C38.0523 10.9965 30.8165 15.8029 22.7208 17.9492L26.4221 33.3675C29.073 32.7925 31.7742 32.509 34.4675 32.509Z" fill="#E89247"/>
<path d="M16.961 50.3168C16.0244 50.3168 15.1117 49.9671 14.4079 49.3152C13.482 48.4594 13.0454 47.2035 13.2439 45.9555L14.699 36.7241C14.7519 36.3823 15.0085 36.1041 15.3445 36.0246L21.4692 34.5487C21.747 34.4825 22.0407 34.5593 22.2497 34.7528C22.4587 34.9462 22.5592 35.2323 22.5142 35.5159L20.6808 47.1319C20.4427 48.6449 19.3262 49.8531 17.842 50.2108C17.5483 50.2824 17.252 50.3168 16.9584 50.3168H16.961ZM17.4425 48.5468C18.2521 48.3508 18.8606 47.691 18.9928 46.867L20.6252 36.5174L16.3022 37.5587L14.9344 46.2231C14.826 46.912 15.0561 47.5824 15.5694 48.0567C16.0826 48.5309 16.7652 48.7085 17.4425 48.5468Z" fill="#E89247"/>
<path d="M50.8017 26.8469C50.4155 26.8469 50.0636 26.5819 49.971 26.1898L46.9549 13.6304C46.902 13.4105 46.9391 13.1774 47.0581 12.9839C47.1772 12.7905 47.3677 12.6501 47.5873 12.5971C51.2938 11.7041 55.0321 13.9987 55.9211 17.7083L56.1063 18.4767C56.5375 20.2731 56.2439 22.1332 55.2808 23.7097C54.3178 25.2863 52.7966 26.3938 51.0028 26.8257C50.9367 26.8416 50.8679 26.8496 50.8017 26.8496V26.8469ZM48.8387 14.1312L51.4208 24.8888C52.4129 24.4702 53.249 23.7521 53.8231 22.8141C54.548 21.6271 54.7702 20.2307 54.4448 18.8794L54.2596 18.111C53.6564 15.6044 51.3282 13.9564 48.8387 14.1339V14.1312Z" fill="#E89247"/>
</svg>
