<svg width="51" height="56" viewBox="0 0 51 56" fill="none" xmlns="http://www.w3.org/2000/svg">
<path d="M49.2637 55.8786H0.76934C0.552773 55.8786 0.345722 55.788 0.200551 55.6259C0.0553796 55.4663 -0.0160129 55.2517 0.00302595 55.0348L1.28815 41.1989C1.48805 39.0371 2.95643 37.2209 5.02452 36.5702L16.4169 32.9903C16.8215 32.864 17.2546 33.088 17.3831 33.4956C17.5092 33.9008 17.2855 34.3346 16.8786 34.4633L5.48621 38.0432C4.0107 38.5056 2.96595 39.8022 2.82316 41.3419L1.61657 54.3341H48.4188L47.2122 41.3419C47.0694 39.7998 46.0247 38.5056 44.5492 38.0432L33.1568 34.4633C32.7522 34.3369 32.5261 33.9031 32.6523 33.4956C32.7784 33.088 33.2115 32.864 33.6185 32.9903L45.0109 36.5702C47.0789 37.2209 48.5449 39.0371 48.7472 41.1989L50.0323 55.0348C50.0514 55.2517 49.98 55.4663 49.8348 55.6259C49.6897 55.7856 49.4826 55.8786 49.266 55.8786H49.2637Z" fill="#E89247"/>
<path d="M25.017 39.4583C24.8813 39.4583 24.7457 39.4226 24.6243 39.351L16.2615 34.4078C15.895 34.1909 15.7736 33.7189 15.9902 33.3519C16.2067 32.9848 16.678 32.8633 17.0445 33.0802L25.017 37.7923L32.9895 33.0802C33.356 32.8633 33.8272 32.9848 34.0438 33.3519C34.2603 33.7189 34.139 34.1909 33.7725 34.4078L25.4096 39.351C25.2883 39.4226 25.1526 39.4583 25.0193 39.4583H25.017Z" fill="#E89247"/>
<path d="M26.538 43.1363H23.4966C23.18 43.1363 22.8968 42.9433 22.7802 42.6477L20.5646 37.0037C20.4099 36.608 20.6027 36.16 21.0001 36.0026C21.3951 35.8477 21.8426 36.0408 21.9996 36.4388L24.0249 41.5942H26.0168L28.0421 36.4388C28.1968 36.0432 28.6442 35.8477 29.0416 36.0026C29.4367 36.1576 29.6318 36.6057 29.4771 37.0037L27.2615 42.6477C27.1449 42.9433 26.8617 43.1363 26.5452 43.1363H26.538Z" fill="#E89247"/>
<path d="M28.7535 55.8774C28.387 55.8774 28.061 55.6128 27.9967 55.2386L25.8906 43.1378H24.1461L22.0399 55.2386C21.9662 55.6581 21.5664 55.9393 21.1499 55.8654C20.731 55.7916 20.4502 55.3935 20.524 54.974L22.7396 42.2345C22.8039 41.865 23.1228 41.5957 23.4988 41.5957H26.5403C26.9139 41.5957 27.2352 41.865 27.2994 42.2345L29.5151 54.974C29.5889 55.3935 29.308 55.7939 28.8892 55.8654C28.844 55.8726 28.8011 55.8774 28.7559 55.8774H28.7535Z" fill="#E89247"/>
<path d="M9.66526 55.8786C9.63908 55.8786 9.61053 55.8786 9.58435 55.8739C9.16073 55.8286 8.85373 55.4496 8.89895 55.0254L9.82947 46.1303C9.87469 45.7061 10.2531 45.3986 10.6767 45.4439C11.1003 45.4892 11.4073 45.8681 11.3621 46.2924L10.4316 55.1874C10.3911 55.5831 10.0556 55.8786 9.66764 55.8786H9.66526Z" fill="#E89247"/>
<path d="M40.3703 55.8786C39.98 55.8786 39.6468 55.5831 39.6063 55.1874L38.6758 46.2924C38.6306 45.8681 38.9376 45.4892 39.3612 45.4439C39.7848 45.3986 40.1632 45.7061 40.2084 46.1303L41.1389 55.0254C41.1842 55.4496 40.8772 55.8286 40.4535 55.8739C40.4274 55.8763 40.3988 55.8786 40.3726 55.8786H40.3703Z" fill="#E89247"/>
<path d="M38.8021 29.1568C38.3761 29.1568 38.0335 28.8112 38.0335 28.3846V14.5772C38.0335 7.38871 32.1957 1.54209 25.018 1.54209C17.8404 1.54209 12.0026 7.38871 12.0026 14.5772V28.3846C12.0026 28.8112 11.6575 29.1568 11.2315 29.1568C10.8055 29.1568 10.4604 28.8112 10.4604 28.3846V14.5772C10.4604 6.5402 16.9908 0 25.0156 0C33.0405 0 39.5708 6.5402 39.5708 14.5772V28.3846C39.5708 28.8112 39.2258 29.1568 38.7998 29.1568H38.8021Z" fill="#E89247"/>
<path d="M11.2312 29.1579H7.9779C6.23584 29.1579 4.81982 27.7398 4.81982 25.9951V20.1199C4.81982 18.3752 6.23584 16.957 7.9779 16.957H11.2312C11.6572 16.957 12.0022 17.3026 12.0022 17.7293V28.3905C12.0022 28.8171 11.6572 29.1627 11.2312 29.1627V29.1579ZM7.98027 18.4967C7.08783 18.4967 6.36197 19.2237 6.36197 20.1175V25.9927C6.36197 26.8865 7.08783 27.6135 7.98027 27.6135H10.4625V18.4944H7.98027V18.4967Z" fill="#E89247"/>
<path d="M42.0552 29.1568H38.8019C38.3759 29.1568 38.0332 28.8112 38.0332 28.3846V17.7234C38.0332 17.2968 38.3783 16.9512 38.8019 16.9512H42.0552C43.7972 16.9512 45.2132 18.3693 45.2132 20.114V25.9892C45.2132 27.7339 43.7948 29.1521 42.0552 29.1521V29.1568ZM39.573 27.6147H42.0552C42.9476 27.6147 43.6735 26.8878 43.6735 25.994V20.1188C43.6735 19.225 42.9476 18.498 42.0552 18.498H39.573V27.6171V27.6147Z" fill="#E89247"/>
<path d="M25.0387 34.6856C23.468 34.6856 22.1924 33.4057 22.1924 31.835C22.1924 30.2643 23.4704 28.9844 25.0387 28.9844C26.607 28.9844 27.885 30.2643 27.885 31.835C27.885 33.4057 26.607 34.6856 25.0387 34.6856ZM25.0387 30.5241C24.3176 30.5241 23.7321 31.1104 23.7321 31.8326C23.7321 32.5548 24.3176 33.1411 25.0387 33.1411C25.7598 33.1411 26.3452 32.5548 26.3452 31.8326C26.3452 31.1104 25.7598 30.5241 25.0387 30.5241Z" fill="#E89247"/>
<path d="M27.0881 32.4808C26.7335 32.4808 26.4146 32.2329 26.3361 31.873C26.2457 31.4559 26.5122 31.046 26.9263 30.9578C30.9506 30.0902 33.8731 26.4626 33.8731 22.332V15.0863C33.8731 10.2217 29.9202 6.2628 25.0629 6.2628C20.2056 6.2628 16.2527 10.2217 16.2527 15.0863V22.332C16.2527 26.3958 18.999 29.9186 22.9329 30.8958C23.3446 30.9983 23.5969 31.4178 23.4946 31.8301C23.3922 32.2448 22.9734 32.4951 22.5617 32.3926C17.94 31.2438 14.7129 27.1061 14.7129 22.332V15.0863C14.7129 9.37082 19.356 4.7207 25.0653 4.7207C30.7745 4.7207 35.4153 9.37082 35.4153 15.0863V22.332C35.4153 27.1848 31.9835 31.4464 27.2524 32.4665C27.1976 32.4784 27.1429 32.4832 27.0905 32.4832L27.0881 32.4808Z" fill="#E89247"/>
<path d="M22.8804 32.6515H14.7175C12.371 32.6515 10.46 30.7376 10.46 28.3875C10.46 27.9608 10.805 27.6152 11.231 27.6152C11.657 27.6152 12.0021 27.9608 12.0021 28.3875C12.0021 29.889 13.2206 31.1094 14.7199 31.1094H22.8828C23.3088 31.1094 23.6539 31.455 23.6539 31.8816C23.6539 32.3083 23.3088 32.6539 22.8828 32.6539L22.8804 32.6515Z" fill="#E89247"/>
</svg>
