<svg width="48" height="49" viewBox="0 0 48 49" fill="none" xmlns="http://www.w3.org/2000/svg">
<path d="M18.7709 37.5986C8.42109 37.5986 0 29.1647 0 18.7993C0 8.43384 8.42109 0 18.7709 0C29.1207 0 37.5418 8.43384 37.5418 18.7993C37.5418 29.1647 29.1207 37.5986 18.7709 37.5986ZM18.7709 1.71697C9.36559 1.71697 1.71173 9.37976 1.71173 18.7993C1.71173 28.2188 9.36295 35.8842 18.7709 35.8842C28.1788 35.8842 35.83 28.2214 35.83 18.7993C35.83 9.37711 28.1788 1.71697 18.7709 1.71697Z" fill="#E89247"/>
<path d="M44.4283 48.0547C43.5182 48.0547 42.6081 47.7076 41.9149 47.0133L29.11 34.189C28.9486 34.0274 28.8586 33.8101 28.8586 33.5823C28.8586 33.3544 28.9486 33.1371 29.11 32.9755L32.925 29.1547C33.2584 28.8208 33.8007 28.8208 34.1367 29.1547L46.9417 41.979C48.328 43.3674 48.328 45.6249 46.9417 47.0107C46.2485 47.7049 45.3384 48.052 44.4283 48.052V48.0547ZM30.9276 33.5849L43.1267 45.8024C43.8225 46.4993 45.0342 46.4993 45.73 45.8024C46.0765 45.4553 46.2697 44.9917 46.2697 44.4988C46.2697 44.006 46.0792 43.5423 45.73 43.1952L33.5309 30.9777L30.9276 33.5849Z" fill="#E89247"/>
<path d="M7.29399 19.6577C6.82042 19.6577 6.43945 19.2735 6.43945 18.7992C6.43945 11.9896 11.9715 6.44922 18.7708 6.44922C19.2444 6.44922 19.628 6.83342 19.628 7.30771C19.628 7.78199 19.2444 8.16619 18.7708 8.16619C12.9134 8.16619 8.15118 12.9382 8.15118 18.8019C8.15118 19.2762 7.76756 19.6604 7.29399 19.6604V19.6577Z" fill="#E89247"/>
</svg>
