<svg width="40" height="33" viewBox="0 0 40 33" fill="none" xmlns="http://www.w3.org/2000/svg">
<g clip-path="url(#clip0_144_480)">
<path d="M10.5637 10.353C10.6889 10.4836 10.8423 10.7763 10.7682 10.9575C10.0066 13.2989 8.95411 15.5638 8.24364 17.9209C8.00387 18.7171 8.04266 19.2815 8.6738 19.8948C10.4685 21.0864 12.4395 22.1021 14.2183 23.3042C14.6432 23.5916 15.2955 23.9331 15.0046 24.5481C14.3294 25.63 13.5854 26.6718 12.9155 27.7536C12.7269 28.0585 12.0763 29.0254 12.0182 29.2972C11.8207 30.2415 13.1376 30.731 13.6595 29.8861C14.6943 28.1822 16.0025 26.6038 17.0585 24.9244C17.5856 24.0864 18.1533 23.2136 17.1978 22.4296C15.9302 21.3861 14.0526 20.501 12.681 19.5045C11.9071 18.9435 12.2703 18.461 12.5188 17.6996C13.0671 16.015 13.797 14.3895 14.3805 12.7188C14.4793 12.5672 14.6855 12.4244 14.8742 12.4766C15.1104 12.5428 15.969 13.9296 16.1893 14.2293C16.5772 14.7571 17.2066 15.9122 17.9558 15.5812C19.2093 14.7937 21.2173 14.2258 22.3668 13.3773C23.0702 12.8564 22.7158 11.9592 21.7603 12.1073C20.9352 12.2362 19.3838 13.1753 18.4406 13.4766C17.8501 13.6648 17.7901 13.6718 17.3829 13.2049C16.3656 12.0359 15.5388 10.4192 14.5039 9.27978C13.3104 7.96968 11.6091 8.42961 10.0366 8.42786C9.08457 8.42786 7.98448 8.28152 7.05363 8.37386C6.69575 8.4087 6.49301 8.57943 6.27264 8.8425L3.35492 13.4C3.10987 14.1613 3.86795 14.8982 4.53788 14.2589L7.70769 10.0533C8.23835 9.97316 8.77782 10.0446 9.30142 10.0777C9.73158 10.1038 10.2252 10.0028 10.5637 10.3547V10.353ZM16.1964 16.0533C15.701 15.5707 15.4136 14.9104 14.9905 14.3791C14.957 14.3373 14.9905 14.2833 14.8706 14.3129L13.3633 18.6212C14.6873 19.6317 16.2299 20.4052 17.575 21.3808C19.0806 22.4732 19.1 23.6195 18.1868 25.1613C17.0655 27.055 15.567 28.8373 14.3735 30.6962C13.1112 32.0603 10.8564 31.3233 10.8916 29.3791C10.9004 28.8547 11.766 27.4749 12.0763 26.9801C12.637 26.0899 13.3051 25.2589 13.8234 24.3408L10.6871 22.4784C10.1847 23.7449 9.83736 25.1805 9.24677 26.4035C8.97351 26.9697 8.81836 27.0307 8.41112 27.4366C6.68517 29.1596 4.99096 30.9104 3.22623 32.5969C2.29714 33.2711 0.721048 33.0603 0.218602 31.9697C-0.553579 30.2955 0.900871 29.346 1.87579 28.2658C2.92829 27.1021 3.97901 25.9331 5.02974 24.7676C5.5604 23.5777 5.93767 22.3129 6.31671 21.0777C6.35021 20.9662 6.57411 20.3077 6.60584 20.278C6.66402 20.2258 6.66754 20.2327 6.71514 20.2867C6.82268 20.4104 6.91612 20.609 7.02719 20.7432C7.17528 20.9244 7.45912 21.0603 7.44677 21.3094C6.9884 22.447 6.70809 23.7833 6.19683 24.8861C5.81603 25.7101 4.93983 26.4383 4.32985 27.1247C3.67931 27.8599 3.04993 28.616 2.39587 29.3477C2.0944 29.6857 1.32751 30.339 1.16179 30.7118C1.00489 31.0655 1.17589 31.623 1.52849 31.8042C2.47873 32.2885 3.18215 31.0672 3.72691 30.508C5.15491 29.0446 6.70633 27.6962 8.12199 26.2205C8.73374 24.8233 9.20798 23.3651 9.68046 21.9157C9.70514 21.832 9.66283 21.8024 9.61346 21.7484C9.4213 21.5428 8.81308 21.3164 8.54334 21.1509C7.24932 20.3547 6.77508 19.2641 7.16646 17.7833C7.46088 16.6683 8.0074 15.2641 8.41112 14.1561C8.77605 13.1543 9.27145 12.1979 9.53237 11.1578L8.22248 11.0794C7.83463 11.5951 7.49614 12.1509 7.1171 12.6718C6.61818 13.3582 5.75961 14.6735 5.18665 15.2084C3.80095 16.5045 1.56022 14.7031 2.30596 12.9819C3.00586 11.3651 4.64365 9.61253 5.4793 8.00452C6.34316 6.99232 7.77998 7.3094 8.98585 7.28327C10.19 7.25713 11.8859 7.0864 13.0495 7.2432C13.8322 7.34773 14.8389 8.06027 15.3643 8.62473C16.4185 9.75365 17.2524 11.1578 18.2502 12.339L18.423 12.3233C19.3098 11.9888 20.2089 11.5063 21.0904 11.184C23.5074 10.2989 24.8861 13.0376 22.7388 14.4139C21.7303 15.0603 20.0291 15.8756 18.9131 16.3686C17.8025 16.8599 17.1255 16.9557 16.1929 16.0481L16.1964 16.0533Z" fill="#333333"/>
<path d="M33.6445 12.0412C33.6939 12.076 33.8949 11.8966 33.9513 11.8548C34.9403 11.1265 35.9681 10.1335 36.9942 9.48718C37.851 8.94711 38.8541 8.94188 39.5522 9.73979C40.3826 10.6875 39.9419 11.7241 39.1327 12.4802C38.0149 13.5255 36.3401 14.8635 35.1007 15.7816C32.6344 17.6109 32.0103 16.0934 30.5188 14.3792C30.4871 14.3426 30.5205 14.2816 30.3989 14.313L28.784 18.6213L28.8845 18.7293L33.5088 21.6527C34.2492 22.3269 34.4238 23.0743 34.1893 24.029C33.8102 25.5691 33.1791 27.1562 32.726 28.6806C32.4651 29.5551 32.2324 31.1893 31.7053 31.8565C30.4112 33.4959 27.9307 32.6457 28.0524 30.5725L29.6179 24.529L26.1643 22.4262C25.7429 23.4837 25.4203 24.5865 25.0007 25.644C24.4771 26.9558 24.1122 27.1231 23.1831 28.0847C22.3492 28.9471 21.503 29.7973 20.6497 30.6457C20.0679 31.2224 19.5073 31.9384 18.8709 32.4541C16.8752 34.0743 14.0738 31.7903 16.0977 29.4541C16.8082 28.6335 17.6526 27.7868 18.3984 26.9732C19.0965 26.2119 20.3341 25.1614 20.7132 24.2485C20.9935 23.5708 21.2967 22.6579 21.5276 21.9523C21.7198 21.3652 21.8362 20.7398 22.0354 20.1544C22.3069 20.5325 22.7459 20.8199 22.901 21.2659L21.6246 24.8931C20.1349 26.9558 18.2256 28.7067 16.5508 30.6283C16.2581 31.4088 16.9263 32.1544 17.7461 31.8617C18.2538 31.6806 18.8656 30.8112 19.2605 30.4123C20.625 29.036 22.0636 27.7311 23.4458 26.3687C23.615 26.0847 23.7737 25.7955 23.9024 25.4907C24.3978 24.313 24.7574 23.0203 25.1647 21.8164C24.165 21.2137 23.1214 20.8234 22.6683 19.6579C22.3615 18.8722 22.4426 18.3931 22.6771 17.6126C23.1284 16.1056 23.8847 14.536 24.4401 13.0516C24.5952 12.6387 25.0236 11.6109 25.0659 11.238C25.0783 11.1335 24.8949 11.1265 24.8262 11.1178C24.2109 11.0429 23.9059 11.2311 23.3453 10.7729C22.9486 10.4488 23.1284 10.0691 23.6273 10.0238C24.1016 9.98195 25.1453 9.99937 25.6054 10.0882C25.9263 10.1509 26.263 10.4907 26.2736 10.8286C25.8293 12.5621 25.0836 14.1858 24.4542 15.853C24.195 16.5394 23.4969 18.1318 23.5533 18.7851C23.5903 19.2154 23.8618 19.698 24.2056 19.9488C26.0056 21.2677 28.3362 22.238 30.138 23.5429C31.2169 24.3234 30.6404 24.9785 30.3654 26.0342C30.108 27.022 29.8683 28.0168 29.6038 29.0029C29.4381 29.6196 28.9427 30.6126 29.2512 31.1893C29.6567 31.9488 30.7392 31.6945 30.9807 30.9314L33.1527 23.8269C33.2073 23.3199 33.2549 22.9332 32.8582 22.5621C32.176 21.9227 30.6598 21.1649 29.8118 20.6109C29.3852 20.3321 28.9744 20.022 28.5478 19.7415C27.996 19.3774 27.5535 19.3914 27.7069 18.5516L29.833 12.799C29.9247 12.5691 30.242 12.4157 30.4518 12.5882C31.1129 13.2868 31.6347 14.1562 32.2853 14.8583C33.1209 15.7555 33.4153 15.6614 34.348 14.9872C35.8765 13.8826 37.2604 12.5325 38.7395 11.3687C39.2314 10.6579 38.5526 9.94885 37.7558 10.2921C37.1652 10.5464 36.0051 11.6666 35.4181 12.1161C35.0108 12.4297 34.2475 13.0778 33.8402 13.2955C33.4929 13.4819 33.4418 13.3809 33.1985 13.1283C31.9697 11.853 30.5382 9.05338 28.844 8.54293C28.2534 8.36522 27.7791 8.44885 27.1833 8.4262C25.8011 8.37394 24.0487 8.25373 22.6859 8.37045C22.3651 8.39833 22.194 8.47672 21.9613 8.68752C21.3848 9.21017 20.4628 10.8548 19.8387 11.0847C19.5425 11.1945 18.8003 11.2224 18.9766 10.7502C19.0542 10.5447 19.6906 9.74502 19.8687 9.51331C20.4346 8.77986 21.4166 7.3809 22.3739 7.28683C24.3184 7.09693 26.568 7.42968 28.546 7.28509C30.2191 7.4262 31.6841 9.37394 32.6167 10.6004C32.9728 11.0673 33.3025 11.5621 33.6428 12.0412H33.6445Z" fill="#333333"/>
<path d="M30.7039 1.0993C29.156 1.28397 28.2551 3.15331 28.6905 4.55923C29.3746 6.76655 32.4704 6.84321 33.477 4.87456C34.4396 2.99129 32.7489 0.857143 30.7039 1.0993ZM34.9226 3.70557C34.9226 5.75261 33.2443 7.41115 31.1728 7.41115C29.1013 7.41115 27.423 5.75261 27.423 3.70557C27.423 1.65854 29.1013 0 31.1728 0C33.2443 0 34.9226 1.65854 34.9226 3.70557Z" fill="#333333"/>
<path d="M15.3819 1.09967C13.4744 1.30002 12.3531 3.54218 13.4462 5.15368C15.3255 7.92023 19.5337 5.25472 17.8077 2.44636C17.3458 1.69549 16.2934 1.00385 15.3819 1.09967ZM19.3063 3.69897C19.3063 5.73207 17.6385 7.38016 15.5811 7.38016C13.5237 7.38016 11.856 5.73207 11.856 3.69897C11.856 1.66587 13.5255 0.0195312 15.5829 0.0195312C17.6403 0.0195312 19.308 1.66761 19.308 3.70072L19.3063 3.69897Z" fill="#333333"/>
</g>
<defs>
<clipPath id="clip0_144_480">
<rect width="40" height="33" fill="white"/>
</clipPath>
</defs>
</svg>
