<svg width="40" height="46" viewBox="0 0 40 46" fill="none" xmlns="http://www.w3.org/2000/svg">
<g clip-path="url(#clip0_144_463)">
<path d="M30.6046 35.1821C30.7369 35.5292 30.9066 36.2912 31.191 36.5117C31.3784 36.658 32.5027 36.9572 32.3417 36.4746L31.7135 34.9877L30.6046 35.1821ZM31.2593 34.1449C31.3144 34.0925 30.7391 32.789 30.6752 32.7497L29.6258 32.8502L30.2122 34.2476L31.2615 34.1449H31.2593ZM30.3445 31.8786C30.4327 31.7934 29.9697 30.7235 29.9521 30.5183L28.711 30.7148L29.2974 31.9834L30.3467 31.8807L30.3445 31.8786ZM29.6898 29.6122L29.1982 26.2454C28.2789 25.6231 26.3544 26.1689 26.4272 27.4703C27.3795 27.7497 27.8424 28.9572 28.1929 29.8021L29.692 29.6144L29.6898 29.6122ZM23.0477 39.1711C20.7242 36.4244 18.9628 33.0227 17.0582 29.9812C16.3924 28.92 15.169 26.8633 14.1946 26.1471C13.617 25.7235 12.819 26.3371 12.3627 26.7301C11.2803 27.6646 11.2009 28.3633 11.8953 29.5925C13.2775 32.0401 16.0199 33.3458 17.9267 35.2803C19.7432 37.1231 20.6911 39.6471 22.5341 41.4659C26.1031 44.9877 31.6561 45.4528 36.4641 45.0947C37.6435 45.0074 38.5914 44.3262 38.9794 43.2148C38.3313 43.7956 37.5178 44.134 36.6493 44.2432C31.7333 44.8655 26.2288 42.9288 23.0521 39.1733L23.0477 39.1711ZM21.1232 21.7759C20.938 21.5969 18.9386 22.3524 18.6145 22.4965C17.1331 23.1558 15.9692 24.1886 15.1116 25.5554C18.4205 29.3917 20.2987 34.3305 23.4798 38.2563C25.9752 41.3349 29.6302 43.1886 33.6446 43.4091C35.1965 43.4943 37.2908 43.6952 38.3864 42.4659C38.4768 42.3633 38.9463 41.634 38.9595 41.551C38.9904 41.3655 38.5782 40.8152 38.4062 40.7628C37.5377 40.8218 36.6801 41.0467 35.8071 41.0772C34.134 41.1362 30.6068 40.6799 29.1232 39.92C28.4178 39.5598 28.4817 38.9266 29.2665 38.9986C29.6765 39.0358 30.6619 39.5052 31.1667 39.6449C32.9083 40.1231 35.3222 40.4069 37.1034 40.2257C37.1695 40.2192 37.4098 40.1995 37.4054 40.1056C37.1364 40.1668 37.0064 39.9855 36.7969 39.8982C35.2737 39.2738 33.7746 38.8982 32.8532 37.3786C32.1918 37.6384 31.3894 37.6275 30.7677 37.2563C30.1902 36.9113 29.9543 35.9921 29.7493 35.3829C29.3877 35.324 28.603 35.5641 28.5721 35.0205C28.5412 34.4965 29.24 34.5467 29.2974 34.4703C29.3437 34.4069 28.8124 33.1864 28.7132 33.0117C28.2877 32.9899 27.6065 33.3414 27.4302 32.7912C27.2274 32.1558 27.8821 32.1952 28.2833 32.1384C28.3693 32.1275 28.4046 32.1799 28.3759 32.051C28.3472 31.9244 27.8556 30.9091 27.7983 30.8764C27.6484 30.789 26.8394 31.2476 26.6013 30.6995C26.2552 29.8982 27.3332 30.0379 27.3376 29.9703C27.1502 29.3873 26.6388 28.3611 26.0171 28.1689C24.3175 27.6493 22.4415 28.0161 21.1254 26.4069C19.7609 24.7366 20.9513 23.5598 21.1254 21.7781L21.1232 21.7759ZM25.8319 27.086C25.6931 26.4004 26.3037 25.7279 26.8989 25.455C27.4919 25.182 27.3729 25.3938 27.8909 24.8829C28.9667 23.8283 29.9918 22.7366 31.0279 21.6427C31.7245 21.396 31.8501 22.2017 31.4181 22.6122L28.9072 25.2738C29.4473 25.3764 29.9367 25.634 30.1152 26.1821C30.3996 27.051 30.3026 28.324 30.5583 29.241C30.6355 29.5139 30.8251 29.6144 30.8581 29.7257C30.9022 29.8786 30.803 30.0336 30.8162 30.2104C30.8295 30.3807 31.1072 31.4179 31.1932 31.527C31.3056 31.6668 31.5459 31.7017 31.6231 31.9419C31.7289 32.2716 31.5195 32.3829 31.5481 32.5947C31.5636 32.7061 31.9141 33.5816 31.9758 33.6493C32.0662 33.7519 32.2183 33.6908 32.3572 33.9353C32.5688 34.3087 32.4321 34.4506 32.4387 34.7628C32.4564 35.7148 33.5873 37.2345 34.3015 37.8414C36.0651 39.3393 38.6355 38.9855 39.6628 41.3393C40.7694 43.872 39.0323 45.7104 36.528 46.003H13.2423C12.8719 45.9921 12.2723 45.8764 12.3781 45.4026C12.4266 45.1886 12.5875 45.1144 12.7859 45.0947C15.072 44.8502 17.7305 45.3327 20.043 45.027C22.0888 44.9746 24.1499 45.1056 26.1935 45.0292C26.2728 45.027 26.436 45.0772 26.4205 44.9659C24.6063 44.3611 22.9088 43.1777 21.6148 41.7934C19.9769 40.0423 19.0135 37.7803 17.3668 36.027C15.482 34.0227 10.2442 31.2476 10.533 28.1602C10.6807 26.5772 11.8512 25.7541 13.2445 25.2759C13.5531 25.1711 14.091 25.1078 14.3202 24.9812C14.5385 24.8589 15.0742 24.1144 15.3056 23.8829C16.4916 22.6995 17.9201 21.9179 19.4478 21.2497C19.7917 21.0991 20.7308 20.8414 20.9469 20.6799C21.0879 20.5729 21.4407 19.9703 21.6148 19.7694C22.3026 18.9877 23.2307 18.2235 23.9802 17.4812C24.2976 17.1668 25.0472 16.1995 25.3778 16.0489C25.9223 15.7978 26.2508 16.3742 25.8606 16.9157C25.0361 18.062 23.288 19.3109 22.3004 20.4484C22.2387 20.5205 21.9565 20.8349 21.9389 20.8742C21.908 20.9441 21.994 22.1122 21.9653 22.3851C21.8397 23.6253 20.9072 24.4855 21.7625 25.7104C22.62 26.9375 24.4475 27.11 25.8319 27.0882V27.086Z" fill="#333333"/>
<path d="M18.5087 4.09503H16.3836C15.9934 4.09503 16.1058 2.96621 15.989 2.60813C15.2395 0.311191 11.3772 0.48368 10.8989 2.87451C10.8416 3.16054 10.9209 3.69765 10.8746 3.81774C10.8438 3.89853 10.6255 4.09503 10.5638 4.09503H8.37255V6.84831C8.37255 7.047 8.69661 7.12779 8.85974 7.14307C11.763 7.40944 15.0741 6.93565 18.0215 7.14307C18.1383 7.18892 18.5087 6.99678 18.5087 6.91381V4.09722V4.09503ZM2.97823 5.06665C2.03031 5.19329 0.998622 6.13434 0.919261 7.10813L0.914853 32.7588C0.954533 33.8549 1.84073 34.6474 2.86139 34.9094L12.2634 34.9225C12.8851 34.9313 12.9777 35.7741 12.3296 35.833L2.78865 35.8243C1.36897 35.5994 0.182971 34.4356 0 33.0164L0.0198402 6.86359C0.299807 5.39416 1.60485 4.27407 3.10609 4.15617C4.50372 4.047 6.04464 4.24132 7.4577 4.15835C7.4092 3.87014 7.49959 3.29591 7.83026 3.19984C8.2491 3.07975 9.68641 3.30901 9.94654 3.15617C9.99724 1.19547 12.0165 -0.153874 13.8969 0.0164316C15.4555 0.15617 17.0736 1.54918 17.003 3.18892C17.0758 3.26316 18.7578 3.1125 19.0995 3.2173C19.5977 3.37233 19.3684 4.16054 19.4235 4.16054H24.0992C25.2058 4.16054 26.8371 5.74569 26.9275 6.86359L26.9385 14.2282C26.8504 14.7872 26.1141 14.7566 26.0303 14.2282C25.876 11.9684 26.2221 9.46621 26.0303 7.23477C25.951 6.31338 24.9347 5.06665 23.9691 5.06665H19.5227C19.5227 5.06665 19.4257 5.15617 19.4257 5.1649V7.04263C19.4257 7.38324 18.6872 8.09503 18.2816 8.047H8.73188C8.28217 8.02517 7.86994 7.75442 7.6539 7.37014C7.62083 7.31119 7.45991 6.94001 7.45991 6.91381V5.06883H2.97823V5.06665Z" fill="#333333"/>
<path d="M4.77488 25.7248V29.1571H8.17637V27.8951C8.17637 27.62 8.95014 27.2707 9.078 27.8449C9.1287 28.0763 9.1287 29.4017 9.078 29.6309C9.0295 29.8515 8.82889 29.9541 8.6371 30.0349C7.39819 29.9759 5.822 30.2226 4.61837 30.0589C4.26565 30.0108 4.01214 29.8143 3.89089 29.4846C3.92175 28.2554 3.74319 26.8362 3.85782 25.6266C3.8953 25.227 4.12456 24.8886 4.55223 24.8231C4.99092 24.7554 6.92423 24.7532 7.35631 24.8231C7.97797 24.9235 7.70021 25.727 7.42465 25.727H4.77709L4.77488 25.7248Z" fill="#333333"/>
<path d="M4.77485 18.5995V21.9663H8.17634V20.6715C8.17634 20.6191 8.94349 20.2523 9.07797 20.7174C9.12867 20.8942 9.12206 22.165 9.08899 22.3833C9.06033 22.5689 8.9457 22.7086 8.76934 22.7785L4.3538 22.8069C4.02313 22.6628 3.89307 22.4161 3.86 22.0667C3.78064 21.2305 3.763 19.1868 3.86 18.3702C3.90629 17.9925 4.16201 17.737 4.54559 17.6912C5.42958 17.5864 6.51638 17.772 7.42241 17.6934C7.73324 17.7348 7.82363 18.2479 7.65388 18.4379C7.64286 18.451 7.37612 18.5995 7.35848 18.5995H4.77485Z" fill="#333333"/>
<path d="M8.17636 13.711C8.25131 13.4424 8.96336 13.211 9.07799 13.7241C9.12428 13.9337 9.12649 14.9796 9.07799 15.187C9.00083 15.521 8.64591 15.6608 8.3417 15.6892C7.50841 15.7656 5.35465 15.7896 4.55222 15.6804C4.22817 15.6368 3.99449 15.4817 3.89088 15.1695C3.93056 13.9534 3.72996 12.5058 3.86002 11.3136C3.91293 10.8267 4.18408 10.556 4.67788 10.5036C5.12979 10.4555 6.95509 10.4337 7.34528 10.5167C7.67595 10.5887 7.75531 10.9861 7.59438 11.2372C7.57675 11.2656 7.31221 11.4097 7.29458 11.4097H4.77708V14.7765H8.17857C8.22927 14.4883 8.10802 13.9577 8.17857 13.7088L8.17636 13.711Z" fill="#333333"/>
<path d="M23.1358 12.7595C23.094 12.8315 22.6509 12.9909 22.5318 12.9691C19.0157 12.7464 15.1447 13.2573 11.6726 12.9691C10.8085 12.897 10.8041 12.135 11.4786 12.0586L22.8956 12.0892C23.1314 12.135 23.2328 12.6001 23.1381 12.7595H23.1358Z" fill="#333333"/>
<path d="M11.1391 18.8793C11.1921 18.8225 11.2935 18.7854 11.364 18.7461L19.3574 18.7636C19.8115 19.0605 19.6704 19.5758 19.1325 19.6369C16.7341 19.4688 14.0358 19.8553 11.6748 19.6369C11.2604 19.5998 10.7534 19.2963 11.1436 18.8771L11.1391 18.8793Z" fill="#333333"/>
<path d="M8.94345 10.8388C9.3116 10.7733 9.607 11.199 9.43505 11.5244L7.1887 14.092C6.8426 14.3715 6.72135 14.3846 6.3488 14.1575C5.98506 13.937 4.90708 12.8977 5.45599 12.5069C5.9035 12.1859 6.32676 13.0003 6.63759 13.223C7.12698 12.9283 8.54004 10.9108 8.94125 10.8388H8.94345Z" fill="#333333"/>
<path d="M6.54291 27.5395C6.587 27.5744 6.63549 27.5439 6.67738 27.498C7.36297 26.7797 8.0221 26.0351 8.73194 25.3365C9.17945 25.0395 9.6975 25.5286 9.3536 26.0177C9.07363 26.4129 7.37179 28.2186 7.00144 28.4806C6.61125 28.7579 6.4393 28.5854 6.11745 28.3146C5.83748 28.0788 4.92042 27.0657 5.49358 26.795C5.95211 26.5766 6.21224 27.0963 6.47677 27.3801C6.52527 27.4303 6.53409 27.5351 6.5407 27.5395H6.54291Z" fill="#333333"/>
<path d="M8.74294 18.1603C9.14195 18.0228 9.65559 18.4245 9.43514 18.8459L6.95953 21.3153C6.44589 21.68 5.22462 20.2695 5.32823 19.8961C5.40097 19.6363 5.70298 19.4944 5.95429 19.6079C6.14608 19.6953 6.45471 20.3699 6.67515 20.2586L8.74514 18.1603H8.74294Z" fill="#333333"/>
<path d="M18.361 40.7332C18.1648 40.9166 17.7967 40.7529 17.5917 40.6568C16.9921 40.3729 15.8435 39.5411 15.2858 39.1197C15.1623 39.0258 14.8339 38.8227 14.7964 38.6961C14.6774 38.3009 15.0676 37.8708 15.4644 38.1022L18.2839 39.9734C18.5198 40.1393 18.5705 40.5432 18.3632 40.7354L18.361 40.7332Z" fill="#333333"/>
<path d="M14.5671 41.8668C14.8294 41.8101 16.0308 42.0917 16.2667 42.2271C16.7032 42.4782 16.4453 43.1005 15.9294 43.0852C15.6473 43.0786 14.4436 42.7184 14.2959 42.4957C14.1174 42.2315 14.2695 41.9302 14.5671 41.8647V41.8668Z" fill="#333333"/>
<path d="M23.7267 31.1849C24.0111 31.1696 24.4189 31.1259 24.6922 31.163C25.1926 31.2285 25.175 31.8923 24.6283 32.0779C24.2117 32.2176 22.7435 32.2962 22.2673 32.27C21.5619 32.2329 21.1453 31.7875 21.8419 31.3246C22.4723 31.3246 23.1006 31.2176 23.7289 31.1849H23.7267Z" fill="#333333"/>
<path d="M26.0744 34.0355C26.3368 34.35 26.0193 34.7801 25.6534 34.8434C25.0295 34.9526 24.28 34.874 23.6429 34.9919C22.9595 34.9351 23.0543 34.1556 23.59 34.0312C23.9427 33.9504 25.25 33.8347 25.6049 33.8587C25.7372 33.8674 25.9929 33.9395 26.0744 34.0377V34.0355Z" fill="#333333"/>
<path d="M13.2598 2.68599C14.4767 2.48949 14.8382 4.15543 13.7382 4.38905C12.356 4.68163 12.1047 2.87158 13.2598 2.68599Z" fill="#333333"/>
</g>
<defs>
<clipPath id="clip0_144_463">
<rect width="40" height="46" fill="white"/>
</clipPath>
</defs>
</svg>
