<svg width="40" height="39" viewBox="0 0 40 39" fill="none" xmlns="http://www.w3.org/2000/svg">
<g clip-path="url(#clip0_144_486)">
<path d="M35.8555 35.3311L34.2648 29.3685C31.4245 30.6778 28.3561 31.4708 25.239 31.8286C20.8392 32.3334 16.0124 32.2018 11.675 31.3025C9.61251 30.8751 7.57927 30.2562 5.70004 29.3143L4.10932 35.306C12.2832 38.501 21.4454 39.1064 30.017 37.1453C32.0074 36.6908 33.9509 36.0583 35.8555 35.3331V35.3311ZM32.446 27.8773V29.3124L33.7755 28.738C33.832 28.6567 32.5649 27.9392 32.446 27.8792V27.8773ZM7.52469 29.2544V27.8773L6.19519 28.6239C6.10942 28.7476 7.37459 29.2505 7.52469 29.2544ZM3.9943 32.695L5.10157 28.4285L6.94572 27.3319L2.61022 26.0419C2.83245 27.0495 3.38804 28.0069 3.65121 28.9952C3.78767 29.5038 3.86369 29.6141 3.44652 29.999C2.80126 30.5927 1.87919 31.0298 1.22419 31.6352L3.99625 32.695H3.9943ZM38.7504 31.7203C38.7699 31.6932 38.4794 31.4185 38.4307 31.3779C37.8692 30.8983 36.9082 30.409 36.4364 29.9158C36.3663 29.8442 36.3 29.7746 36.2766 29.6721C36.1304 29.0281 36.8439 27.6588 37.0758 26.9896C37.1226 26.8523 37.3975 26.0284 37.3624 25.9839L33.0269 27.3048L34.8788 28.4363L35.9725 32.6737L38.7504 31.7222V31.7203ZM33.7189 4.98597C28.8766 4.87186 24.1356 3.30335 19.9756 0.924473C16.492 2.75214 12.7706 4.31292 8.8152 4.8061C7.95356 4.91247 7.06268 4.89893 6.21664 5.04012L6.25172 13.9677C6.09772 16.1203 6.27512 18.3309 7.0003 20.3906C8.63196 25.0285 12.137 28.6548 16.297 31.1903C18.0905 31.3567 19.8664 31.3818 21.6579 31.316C22.5703 31.2832 23.2662 31.4321 24.0791 30.964C29.3113 27.9508 33.446 22.4059 33.7209 16.2614V4.98597H33.7189ZM25.3345 31.0317C27.475 30.7474 29.6388 30.3684 31.6604 29.6044C31.7364 29.5483 31.6896 28.6045 31.6974 28.4227C31.7013 28.3125 31.752 28.2022 31.7578 28.0804C31.7812 27.6143 31.559 26.8677 32.1477 26.7459L38.031 24.9782C38.265 24.984 38.4365 25.2006 38.3956 25.423C37.916 26.7362 37.4326 28.0533 37.0135 29.3859L39.881 31.4901C40.0818 31.7125 40.0195 31.9272 39.8148 32.1148L36.1752 33.4396C36.105 33.5286 36.7834 35.1938 36.645 35.6251C36.5378 35.9577 35.5222 36.2807 35.183 36.4103C26.0305 39.9283 14.1176 39.7852 4.93977 36.4393C4.57328 36.3059 3.49136 35.9752 3.36075 35.6541C3.1736 35.188 3.90073 33.6021 3.76232 33.3913C3.30226 33.194 0.216343 32.2502 0.0740358 32.0297C0.00580638 31.9253 -0.0156372 31.7647 0.0214017 31.6468C0.134468 31.2716 2.89289 29.6199 2.95137 29.3859L1.59653 25.4114C1.56144 25.1619 1.70764 25.0401 1.94547 25.0033L8.07832 26.8407C8.17969 26.9258 8.25377 27.0263 8.27522 27.1617C8.38438 27.8406 8.18944 28.7631 8.27522 29.4555C8.28301 29.5251 8.27132 29.5735 8.33565 29.6257C8.41362 29.6914 9.29671 29.9293 9.47995 29.9816C11.1253 30.4457 12.8271 30.7571 14.5231 30.9718C14.0494 30.4883 13.4119 30.1382 12.8758 29.7089C8.96141 26.5718 5.96516 22.0694 5.44077 17.0061V4.43863C5.48756 4.02861 6.3453 4.21041 6.68839 4.18527C11.4645 3.84681 15.8428 2.29378 19.9853 0C24.3306 2.49879 29.2372 4.17754 34.3252 4.18527C34.4909 4.21041 34.5436 4.34 34.5319 4.49665C34.3428 8.46918 34.7736 12.6564 34.528 16.6038C34.2083 21.7677 31.2295 26.421 27.2703 29.5967C26.6426 30.0995 25.9583 30.5366 25.3345 31.0317Z" fill="#333333"/>
<path d="M18.3946 19.2725C18.1061 19.2938 16.9949 18.2803 16.8916 18.3538C16.4978 19.2067 16.1645 20.1892 15.7278 21.0151C15.4335 21.5721 15.0787 21.4908 14.4919 21.5663C13.9383 21.6359 13.3144 21.692 12.7569 21.7384C12.2676 21.779 11.0726 21.6843 10.7334 21.9686C10.2773 22.3496 10.4897 22.9472 10.9927 23.1464C12.447 23.2083 13.9032 22.9723 15.3594 22.9433C15.9695 22.8485 16.4082 22.8892 16.7649 22.3302C17.3653 21.3903 17.8098 20.2376 18.3966 19.2725H18.3946ZM16.5329 9.47463C16.1041 9.49591 15.8331 9.8247 15.5602 10.1206C14.7141 11.0335 13.9792 12.1204 13.1059 13.0217C12.7335 13.6638 13.3456 14.2788 13.9714 13.8224C14.3847 13.5207 15.2522 12.3834 15.6498 11.9309C15.8623 11.6872 16.223 11.0896 16.5037 10.9987C16.8039 10.902 18.2211 10.9213 18.6012 10.9522C19.2153 11.0025 19.1003 11.2675 18.9599 11.7143C18.5096 13.1474 17.5349 14.6617 17.1665 16.0736C16.8487 17.2901 17.5349 17.7794 18.4589 18.379C19.5565 19.0907 20.9951 19.9455 21.9503 20.8236C22.2739 21.1214 22.2817 21.2839 22.4143 21.6823C22.9309 23.2257 23.2311 24.8812 23.7633 26.4265C24.1649 27.2969 25.3716 26.9545 25.1474 25.9701L23.5157 20.2453C22.4689 19.1623 21.2193 18.2591 20.0126 17.352C19.7163 17.0058 20.1842 16.0175 20.3499 15.6191C20.4785 15.3116 21.502 13.1106 21.6306 13.0468C21.7457 12.9907 21.9055 12.9946 22.0108 13.072C22.6346 13.5632 23.1746 14.4645 23.8003 14.9112C23.9368 15.0099 24.2058 15.1453 24.3735 15.1375C24.6015 15.1278 25.74 14.4181 26.0207 14.2459C26.4574 13.981 27.7518 13.2305 28.0462 12.9269C28.4302 12.5304 28.13 11.9019 27.5861 11.9483L24.97 13.4298C24.5567 13.5593 24.4417 13.4298 24.1746 13.1609C23.5196 12.5014 22.8412 11.5653 22.1531 10.9793C21.8451 10.7163 20.6345 9.8247 20.305 9.65837C20.1686 9.58874 20.0243 9.53459 19.8684 9.51718C19.0204 9.42241 17.8059 9.51718 16.917 9.52105C16.7863 9.52105 16.6811 9.4669 16.5329 9.47463ZM16.8624 11.7568C16.1781 12.4763 15.5738 13.335 14.8974 14.0525C14.3847 14.5979 13.9928 14.9402 13.1897 14.712C12.7238 14.5786 12.4177 14.3155 12.254 13.861C11.9947 13.1377 12.2384 12.7915 12.6711 12.2461C13.1565 11.635 15.2853 9.05688 15.8116 8.82093C16.5349 8.49601 18.0086 8.70102 18.8313 8.71842C19.2699 8.72809 19.5896 8.63526 20.0848 8.73003C20.7203 8.85187 21.9094 9.7396 22.4591 10.1593C23.3325 10.8285 23.9953 11.7897 24.7906 12.5498C24.9212 12.5749 26.7985 11.4067 27.1221 11.2656C28.4087 10.7028 29.5745 12.192 28.7694 13.3002C28.4536 13.7353 27.087 14.5225 26.5646 14.8416C25.9096 15.24 24.8511 16.0136 24.0888 15.9421C23.1453 15.8531 22.695 14.7662 22.0654 14.3349C22.0166 14.302 22.0088 14.2556 21.9211 14.2788L20.8314 16.7312V16.8511L23.7438 19.2686L24.1766 19.6999C24.7263 21.603 25.3852 23.5197 25.8375 25.4537C25.8921 25.6839 25.9603 25.8811 25.972 26.1229C26.0597 27.9157 23.7886 28.2832 23.0284 26.8075L21.5098 21.5431C20.7924 20.8894 19.9346 20.3923 19.1705 19.7889C19.0945 19.7676 19.075 19.8314 19.0379 19.8798C18.9073 20.0597 18.7377 20.3962 18.6149 20.607C18.1997 21.3168 17.7708 22.3708 17.3205 22.9936C16.9774 23.4694 16.3204 23.6531 15.7629 23.7421C14.0611 23.7343 12.2793 24.1037 10.6067 23.8697C9.15635 23.1483 9.45071 21.1582 11.1389 20.9899C12.1916 20.8855 13.256 20.8913 14.3106 20.752C14.5055 20.7269 14.8974 20.7134 15.0104 20.5857L16.3575 17.5029C16.2561 16.8356 16.2191 16.4179 16.3887 15.7564C16.7279 14.4297 17.5759 13.0952 17.9326 11.7529H16.8624V11.7568Z" fill="#333333"/>
<path d="M24.1337 7.01531C24.1337 6.13145 23.4124 5.41585 22.5215 5.41585C21.6307 5.41585 20.9094 6.13145 20.9094 7.01531C20.9094 7.89917 21.6307 8.61476 22.5215 8.61476C23.4124 8.61476 24.1337 7.89917 24.1337 7.01531ZM24.9388 7.00177C24.9388 8.32466 23.8588 9.39612 22.5254 9.39612C21.192 9.39612 20.1121 8.32466 20.1121 7.00177C20.1121 5.67888 21.192 4.60742 22.5254 4.60742C23.8588 4.60742 24.9388 5.67888 24.9388 7.00177Z" fill="#333333"/>
<path d="M18.1062 33.671C18.3031 33.7 18.6891 33.6033 18.8294 33.727C19.0224 33.8972 19.424 35.1389 19.5527 35.4483C19.7768 35.4754 19.6092 35.3555 19.6092 35.3052V33.671H20.1882V36.7693L19.502 36.7616L18.7144 34.8759C18.5994 34.8778 18.7924 36.5043 18.7359 36.6745C18.6852 36.8292 18.1082 36.7442 18.1082 36.7113V33.671H18.1062Z" fill="#333333"/>
<path d="M12.8427 34.8776C12.8388 34.659 13.0688 33.1621 13.1332 33.0983C13.1546 33.077 13.6283 33.1872 13.7121 33.1853L13.1332 36.2546C13.026 36.154 12.4684 36.1598 12.4431 36.1366C12.3651 36.0651 12.1351 34.3225 12.0337 34.0749L11.6282 35.9684C11.6048 35.9897 11.1292 35.8678 11.1155 35.8465C11.0259 35.7131 11.6204 33.2472 11.6321 32.8758C11.6672 32.8449 12.2462 32.9281 12.2949 32.9841C12.4275 33.135 12.64 34.3883 12.7238 34.6803C12.7472 34.7577 12.7296 34.8582 12.8408 34.8776H12.8427Z" fill="#333333"/>
<path d="M14.9753 33.3926C15.0494 33.4545 15.4159 34.9979 15.5036 35.2203L15.6186 34.7329L15.7356 33.4429L16.3146 33.5009L16.0241 36.5992C15.8545 36.4677 15.4023 36.6205 15.3009 36.4851L14.7531 34.5337L14.4977 36.373C14.41 36.5064 14.0961 36.3323 13.946 36.3691L14.2852 33.3617C14.3379 33.2901 14.9461 33.3675 14.9773 33.3926H14.9753Z" fill="#333333"/>
<path d="M32.563 34.4181C33.6274 34.2711 33.4227 33.0546 32.3311 33.5575L32.563 34.4181ZM32.216 33.0972C33.2531 32.9676 33.0816 32.0412 32.0425 32.3506L32.216 33.0972ZM33.3155 32.9811C33.3291 32.9985 33.5689 33.101 33.6625 33.2403C34.3955 34.3465 33.0328 34.8881 32.1556 35.0254L31.4304 32.1224C32.0464 31.7762 33.3935 31.3759 33.4754 32.4551C33.491 32.6562 33.2941 32.954 33.3155 32.9811Z" fill="#333333"/>
<path d="M7.29281 32.1813L6.94777 33.1851C7.81331 33.7808 8.33575 32.3322 7.29281 32.1813ZM7.70609 33.8523C7.62421 33.9742 7.80746 34.6685 7.80356 34.8638C7.79966 35.0901 7.22848 34.858 7.20314 34.8232C7.13881 34.7323 7.16805 34.0554 7.11152 33.8833C7.08033 33.7866 6.8347 33.6899 6.77622 33.7324C6.73918 33.7576 6.62221 34.4712 6.48576 34.5679C6.42337 34.6066 5.98476 34.4364 5.96916 34.4151C5.87949 34.2933 6.86199 31.9202 6.89318 31.5547C7.86009 31.7539 8.81141 32.0614 8.3455 33.2547C8.28701 33.4017 8.1759 33.6086 8.04918 33.7073C7.94976 33.7827 7.71778 33.8407 7.70804 33.8562L7.70609 33.8523Z" fill="#333333"/>
<path d="M22.9056 35.9387C22.7536 36.8515 21.4748 37.0817 21.0069 36.2752C20.7613 35.8536 20.7379 34.5481 20.966 34.1303C21.3578 33.4128 22.5099 33.3354 22.7945 34.1574C22.8511 34.3199 22.8335 34.492 22.9056 34.6487C22.7477 34.61 22.4495 34.7724 22.3228 34.6815C22.235 34.6177 22.3033 34.2174 22.0557 34.1419C21.2291 33.8924 21.3383 35.4261 21.4748 35.8671C21.6073 36.2984 22.2 36.3293 22.315 35.869C22.4339 35.3913 22.1083 35.606 21.7496 35.5654C21.7633 35.4803 21.7301 35.1244 21.7496 35.1051C21.7906 35.0645 22.7653 35.0567 22.9056 35.0471C22.8744 35.3198 22.9485 35.6756 22.9056 35.9367V35.9387Z" fill="#333333"/>
<path d="M9.33189 34.8608C9.51904 35.0562 9.84654 34.9885 9.97715 34.7564L10.4723 32.6367C10.675 32.7083 11.061 32.6077 11.0396 32.8785C11.0162 33.1705 10.6088 34.8744 10.484 35.0871C10.0317 35.8588 8.66324 35.5552 8.61841 34.6152L9.17009 32.2924C9.23832 32.1919 9.76076 32.3833 9.76661 32.4336C9.68084 33.0486 9.19154 34.0872 9.26171 34.6694C9.26951 34.7313 9.28706 34.8144 9.32994 34.8589L9.33189 34.8608Z" fill="#333333"/>
<path d="M30.7696 32.2949C30.7598 33.0492 31.5103 34.4553 31.0854 35.1032C30.6974 35.695 29.6233 35.7762 29.3367 35.0664L28.8611 32.7552C29.019 32.7978 29.3094 32.616 29.4128 32.7552L29.8904 34.8053C30.0366 35.165 30.6234 34.9852 30.637 34.6332L30.1886 32.4458L30.7715 32.2969L30.7696 32.2949Z" fill="#333333"/>
<path d="M26.7226 34.1877C26.6076 34.1528 26.1962 34.296 26.1455 34.2437C26.1085 34.207 26.2079 33.8357 25.8219 33.7873C25.2508 33.7157 25.3112 34.2766 25.3365 34.675C25.3619 35.0889 25.4457 36.0347 26.0871 35.7639C26.3522 35.6517 26.2294 35.261 26.2645 35.2224C26.2879 35.1992 26.7323 35.1934 26.8122 35.1063C27.1787 36.2339 25.6153 36.8702 25.0363 35.9476C24.7907 35.557 24.6367 34.323 24.7868 33.9014C25.1396 32.9131 26.7616 33.0234 26.7245 34.1877H26.7226Z" fill="#333333"/>
<path d="M27.7635 32.9824L28.1105 35.4503L29.0326 35.2781L29.1515 35.7926C28.9371 35.8293 27.7226 36.1639 27.6407 36.0479L27.1826 33.0714L27.7635 32.9824Z" fill="#333333"/>
<path d="M17.5193 33.6224L17.3536 36.7111L16.7747 36.655L16.9501 33.5566L17.5193 33.6224Z" fill="#333333"/>
</g>
<defs>
<clipPath id="clip0_144_486">
<rect width="40" height="39" fill="white"/>
</clipPath>
</defs>
</svg>
