<svg width="32" height="32" viewBox="0 0 32 32" fill="none" xmlns="http://www.w3.org/2000/svg">
<path d="M16.0002 0.0639648C7.02301 0.0639648 0.0639648 6.63972 0.0639648 15.5217C0.0639648 20.168 1.96803 24.1819 5.06859 26.9553C5.3293 27.188 5.48612 27.515 5.49695 27.8637L5.58365 30.699C5.61106 31.6029 6.54556 32.1912 7.37233 31.826L10.5354 30.4293C10.8037 30.3114 11.104 30.2891 11.3864 30.3675C12.8404 30.7672 14.3868 30.9801 15.9996 30.9801C24.9768 30.9801 31.9358 24.4043 31.9358 15.5223C31.9358 6.64036 24.9774 0.0639648 16.0002 0.0639648ZM25.8756 11.3969L20.3272 19.9716C20.0455 20.407 19.4648 20.5313 19.0294 20.2495L13.8896 16.9241C13.6907 16.7953 13.4332 16.7991 13.2381 16.9336L7.445 20.929C6.59974 21.5117 5.56644 20.509 6.1242 19.6472L11.6732 11.0724C11.955 10.6371 12.5357 10.5128 12.9704 10.7945L18.1115 14.1206C18.3103 14.2494 18.5679 14.2456 18.7629 14.1111L24.5548 10.1163C25.4001 9.53303 26.4334 10.5363 25.8756 11.3982V11.3969Z" fill="white"/>
</svg>
