<svg width="224" height="224" viewBox="0 0 224 224" fill="none" xmlns="http://www.w3.org/2000/svg">
<circle cx="112" cy="112" r="110.5" fill="white" fill-opacity="0.76" stroke="#E89247" stroke-width="3"/>
<path d="M133.385 164.669C132.012 164.669 129.912 164.449 126.975 164.002C124.028 163.55 120.391 162.435 116.17 160.69C111.986 158.956 107.191 156.338 101.928 152.9C96.6548 149.457 90.9708 144.674 85.0342 138.676C80.3343 134.045 76.3661 129.541 73.2609 125.288C70.161 121.046 67.6243 117.057 65.7191 113.424C63.8191 109.792 62.3665 106.444 61.4034 103.458C60.4456 100.483 59.7877 97.8759 59.4403 95.6998C59.0824 93.4658 58.9456 91.7312 59.0193 90.396C59.0824 89.2817 59.114 88.6456 59.1193 88.4827C59.1193 88.4091 59.1245 88.3197 59.1351 88.2514C59.293 87.1528 59.6456 86.0227 60.1877 84.9031C60.7455 83.7467 61.4508 82.7795 62.2823 82.0278L75.5292 68.7921C76.7924 67.5306 78.2713 66.8945 79.9344 66.8945C81.1764 66.8945 82.2974 67.2625 83.2606 67.9879C84.0816 68.5976 84.7921 69.3703 85.371 70.2797C85.3973 70.3165 85.4184 70.3585 85.4394 70.4006L96.1496 90.6904C96.9338 92.0834 97.1653 93.655 96.8075 95.3318C96.4759 96.9193 95.7443 98.2807 94.6444 99.3845L89.8288 104.194C89.8288 104.194 89.813 104.241 89.8024 104.268C89.7814 104.326 89.7709 104.373 89.7603 104.41C90.0182 105.587 90.555 106.964 91.3498 108.499C92.1129 110.024 93.3128 111.911 94.9233 114.129C96.5338 116.347 98.86 118.949 101.839 121.856C104.781 124.862 107.402 127.207 109.66 128.847C111.917 130.492 113.812 131.706 115.286 132.458C117.054 133.362 117.98 133.662 118.449 133.751L119.38 133.94C119.412 133.93 119.444 133.919 119.48 133.909C119.507 133.898 119.528 133.893 119.549 133.883L125.159 128.179C125.185 128.153 125.217 128.121 125.243 128.095C126.764 126.755 128.559 126.071 130.575 126.071C131.875 126.071 132.98 126.303 133.864 126.755C134.001 126.792 134.132 126.844 134.238 126.907L153.558 138.303C155.4 139.439 156.5 140.921 156.863 142.729C156.869 142.766 156.879 142.803 156.884 142.845C157.153 144.889 156.5 146.766 155 148.264L141.685 161.463C141.001 162.225 140.032 162.93 138.874 163.487C137.753 164.028 136.627 164.38 135.522 164.538C135.443 164.549 135.359 164.554 135.28 164.554C135.248 164.554 135.09 164.575 134.848 164.596C134.459 164.633 133.975 164.654 133.38 164.654L133.385 164.669ZM62.5192 88.6509C62.5086 88.9453 62.4771 89.5918 62.4192 90.5905C62.3613 91.6681 62.4876 93.2082 62.8034 95.1741C63.1191 97.1768 63.7402 99.6158 64.6454 102.423C65.5506 105.219 66.9243 108.394 68.7347 111.853C70.561 115.333 73.0083 119.18 76.0082 123.286C79.0081 127.386 82.8553 131.759 87.4394 136.274C93.2234 142.114 98.7179 146.745 103.791 150.057C108.881 153.379 113.486 155.902 117.475 157.552C121.443 159.197 124.812 160.238 127.491 160.643C130.217 161.058 132.201 161.274 133.385 161.274C133.859 161.274 134.243 161.258 134.532 161.232C134.78 161.205 134.969 161.19 135.101 161.184C135.843 161.074 136.611 160.822 137.396 160.443C138.159 160.075 138.774 159.634 139.227 159.134L152.6 145.872C153.337 145.137 153.632 144.332 153.521 143.36C153.337 142.524 152.774 141.83 151.806 141.231L132.759 129.993C132.633 129.956 132.511 129.903 132.412 129.846C132.138 129.683 131.601 129.488 130.585 129.488C129.422 129.488 128.427 129.861 127.549 130.618L121.886 136.374C121.554 136.705 121.128 136.952 120.57 137.141C119.891 137.368 119.475 137.436 119.038 137.352L117.791 137.099C116.796 136.9 115.47 136.379 113.749 135.501C112.091 134.655 110.096 133.383 107.665 131.612C105.255 129.861 102.491 127.391 99.4442 124.279C96.3548 121.267 93.9023 118.518 92.176 116.142C90.4603 113.777 89.1656 111.727 88.3288 110.06C87.3341 108.147 86.6762 106.376 86.3762 104.82C86.3552 104.715 86.3447 104.609 86.3447 104.499C86.3447 104.105 86.4236 103.679 86.5815 103.206C86.7657 102.649 87.0131 102.218 87.3394 101.897L92.2445 96.9981C92.8813 96.3621 93.2865 95.5947 93.4813 94.6538C93.6655 93.7864 93.5655 93.0505 93.1655 92.3409L82.4658 72.0721C82.1185 71.536 81.6975 71.0839 81.2238 70.7317C80.8449 70.4479 80.4396 70.3165 79.9396 70.3165C79.1923 70.3165 78.5555 70.6056 77.9397 71.2206L64.6296 84.5141C64.0612 85.0292 63.6244 85.639 63.2612 86.3959C62.8823 87.1738 62.635 87.936 62.5244 88.6614L62.5192 88.6509Z" fill="#E89247"/>
<path d="M132.454 107.743C131.512 107.743 130.749 106.981 130.749 106.046C130.749 98.8969 124.922 93.078 117.765 93.078C116.823 93.078 116.06 92.3159 116.06 91.375C116.06 90.4341 116.823 89.6719 117.765 89.6719C126.801 89.6719 134.154 97.0151 134.154 106.04C134.154 106.981 133.391 107.738 132.448 107.738L132.454 107.743Z" fill="#E89247"/>
<path d="M148.011 107.742C147.069 107.742 146.306 106.98 146.306 106.045C146.306 90.3279 133.501 77.539 117.765 77.539C116.823 77.539 116.06 76.7768 116.06 75.8359C116.06 74.895 116.823 74.1328 117.765 74.1328C135.38 74.1328 149.711 88.4461 149.711 106.039C149.711 106.98 148.948 107.737 148.011 107.737V107.742Z" fill="#E89247"/>
<path d="M163.163 107.743C162.221 107.743 161.458 106.981 161.458 106.045C161.458 81.9811 141.859 62.4062 117.765 62.4062C116.823 62.4062 116.06 61.644 116.06 60.7031C116.06 59.7622 116.823 59 117.765 59C143.732 59 164.863 80.1046 164.863 106.04C164.863 106.981 164.1 107.738 163.158 107.738L163.163 107.743Z" fill="#E89247"/>
</svg>
