<svg width="224" height="224" viewBox="0 0 224 224" fill="none" xmlns="http://www.w3.org/2000/svg">
<circle cx="112" cy="112" r="110.5" fill="white" fill-opacity="0.76" stroke="#E89247" stroke-width="3"/>
<path d="M112.493 163.688C111.988 163.688 111.514 163.468 111.188 163.084L80.5102 126.61C74.3788 119.319 71 110.057 71 100.538C71 78.182 89.2099 60 111.588 60H113.393C135.777 60 153.981 78.1873 153.981 100.538C153.981 110.062 150.603 119.319 144.471 126.61L113.793 163.084C113.472 163.468 112.993 163.688 112.488 163.688H112.493ZM111.588 63.3904C91.0835 63.3904 74.4052 80.048 74.4052 100.527C74.4052 109.253 77.4998 117.731 83.1154 124.412L112.488 159.336L141.861 124.412C147.476 117.731 150.571 109.248 150.571 100.527C150.571 80.048 133.893 63.3904 113.388 63.3904H111.583H111.588Z" fill="#E89247"/>
<path d="M112.493 124.896C99.0413 124.896 88.0942 113.962 88.0942 100.527C88.0942 87.0916 99.0413 76.1582 112.493 76.1582C125.946 76.1582 136.893 87.0916 136.893 100.527C136.893 113.962 125.951 124.896 112.493 124.896ZM112.493 79.5591C100.92 79.5591 91.4994 88.9629 91.4994 100.527C91.4994 112.091 100.915 121.495 112.493 121.495C124.072 121.495 133.487 112.091 133.487 100.527C133.487 88.9629 124.072 79.5591 112.493 79.5591Z" fill="#E89247"/>
</svg>
