<svg width="224" height="224" viewBox="0 0 224 224" fill="none" xmlns="http://www.w3.org/2000/svg">
<circle cx="112" cy="112" r="110.5" fill="white" fill-opacity="0.76" stroke="#E89247" stroke-width="3"/>
<path d="M154.123 133.753C153.181 133.753 152.26 133.385 151.565 132.691L142.771 123.907H101.098C95.6879 123.907 91.2881 119.513 91.2881 114.109V77.798C91.2881 72.3944 95.6879 68 101.098 68H161.47C166.88 68 171.28 72.3944 171.28 77.798V114.109C171.28 119.513 166.88 123.907 161.47 123.907H157.754V130.131C157.754 131.603 156.875 132.912 155.517 133.474C155.065 133.663 154.596 133.753 154.128 133.753H154.123ZM101.104 71.4009C97.5721 71.4009 94.6985 74.2709 94.6985 77.798V114.109C94.6985 117.636 97.5721 120.507 101.104 120.507H143.481C143.934 120.507 144.365 120.685 144.686 121.006L153.981 130.289C154.012 130.32 154.086 130.394 154.218 130.336C154.354 130.278 154.354 130.184 154.354 130.136V122.21C154.354 121.269 155.117 120.507 156.06 120.507H161.48C165.012 120.507 167.885 117.636 167.885 114.109V77.798C167.885 74.2709 165.012 71.4009 161.48 71.4009H101.109H101.104Z" fill="#E89247"/>
<path d="M70.1521 156.251C69.6837 156.251 69.21 156.162 68.7626 155.973C67.4048 155.41 66.5259 154.096 66.5259 152.63V146.406H62.8102C57.3999 146.406 53 142.012 53 136.608V100.302C53 94.8983 57.3999 90.5039 62.8102 90.5039H91.8671C92.8092 90.5039 93.5723 91.2661 93.5723 92.207C93.5723 93.1479 92.8092 93.9048 91.8671 93.9048H62.8102C59.2787 93.9048 56.4051 96.7748 56.4051 100.302V136.608C56.4051 140.135 59.2787 143.005 62.8102 143.005H68.2311C69.1731 143.005 69.9363 143.767 69.9363 144.708V152.635C69.9363 152.682 69.9363 152.782 70.0731 152.84C70.2099 152.898 70.2784 152.824 70.3099 152.793L79.6044 143.51C79.9254 143.189 80.357 143.01 80.8096 143.01H123.187C126.719 143.01 129.592 140.14 129.592 136.613V123.383C129.592 122.442 130.355 121.68 131.297 121.68C132.239 121.68 133.003 122.442 133.003 123.383V136.613C133.003 142.017 128.603 146.411 123.192 146.411H81.5201L72.7256 155.195C72.0309 155.889 71.1047 156.257 70.1678 156.257L70.1521 156.251Z" fill="#E89247"/>
</svg>
