<svg width="270" height="98" viewBox="0 0 270 98" fill="none" xmlns="http://www.w3.org/2000/svg">
<g clip-path="url(#clip0_67_965)">
<path d="M135 98.0012C209.558 98.0012 270 76.0629 270 49.0006C270 21.9383 209.558 0 135 0C60.4416 0 0 21.9383 0 49.0006C0 76.0629 60.4416 98.0012 135 98.0012Z" fill="#E69246"/>
<path d="M68.163 46.6365C69.4489 47.239 70.3337 47.8542 70.8163 48.4831C71.2988 49.112 71.5395 49.9371 71.5395 50.9585V56.0265C71.5395 59.4315 68.9263 61.1346 63.7 61.1346H58.9964C53.7701 61.1346 51.1569 59.4326 51.1569 56.0265V50.1724H59.4181V55.5158C59.4181 56.1711 59.9201 56.4981 60.9253 56.4981H61.7092C62.7132 56.4981 63.2164 56.1711 63.2164 55.5158V52.2152C63.2164 51.4818 62.7338 50.8931 61.7688 50.4467L54.5322 46.9498C53.2451 46.3473 52.3615 45.7253 51.879 45.0838C51.3964 44.4422 51.1558 43.624 51.1558 42.6278V38.2668C51.1558 34.8618 53.7689 33.1587 58.9952 33.1587H63.5785C68.8037 33.1587 71.418 34.8618 71.418 38.2668V43.2958H63.1568V38.7775C63.1568 38.1234 62.6536 37.7951 61.6496 37.7951H60.986C59.9809 37.7951 59.4789 38.1234 59.4789 38.7775V41.3712C59.4789 42.1045 59.9614 42.6944 60.9264 43.1397L68.163 46.6365Z" fill="white"/>
<path d="M96.3243 60.8994H87.3995L83.1176 47.8944V60.8994H74.6753V33.3975H83.1176V46.3233L87.8213 33.3975H96.565L91.0178 46.9132L96.3243 60.9005V60.8994Z" fill="white"/>
<path d="M107.6 42.7082L110.615 33.3962H118.636L111.521 51.1157V60.8993H103.078V51.5094L95.9634 33.3974H104.768L107.602 42.7093L107.6 42.7082Z" fill="white"/>
<path d="M137.388 47.8944C139.84 48.3397 141.066 49.5183 141.066 51.4303V60.8994H132.624V51.4704C132.624 50.8163 132.121 50.488 131.117 50.488H129.006V60.8994H120.563V33.3975H133.166C138.391 33.3975 141.006 35.1005 141.006 38.5056V43.81C141.006 45.9583 139.8 47.3206 137.387 47.8955L137.388 47.8944ZM132.564 39.1724C132.564 38.5182 132.061 38.19 131.057 38.19H129.007V45.8126H131.057C132.061 45.8126 132.564 45.4855 132.564 44.8302V39.1724Z" fill="white"/>
<path d="M153.005 33.3962V60.8982H144.563V33.3962H153.005Z" fill="white"/>
<path d="M156.684 60.8994V33.3975H168.563C174.593 33.3975 177.608 35.3622 177.608 39.2906V55.0063C177.608 58.9358 174.593 60.8994 168.563 60.8994H156.684ZM165.126 38.1108V56.1838H166.814C168.382 56.1838 169.166 55.6731 169.166 54.6517V39.6429C169.166 38.6215 168.382 38.1108 166.814 38.1108H165.126Z" fill="white"/>
<path d="M193.829 49.976H191.176V45.3798H202.09V56.0275C202.09 59.4326 199.477 61.1356 194.251 61.1356H188.824C183.598 61.1356 180.984 59.4337 180.984 56.0275V38.269C180.984 34.864 183.598 33.1609 188.824 33.1609H194.13C199.355 33.1609 201.97 34.864 201.97 38.269V43.5332H193.648V38.8577C193.648 38.2036 193.145 37.8754 192.141 37.8754H190.935C189.93 37.8754 189.428 38.2036 189.428 38.8577V55.4376C189.428 56.0929 189.93 56.42 190.935 56.42H192.322C193.326 56.42 193.829 56.0929 193.829 55.4376V49.976Z" fill="white"/>
<path d="M205.587 33.3962H221.266V38.3069H214.029V44.4754H220.964V49.3862H214.029V55.9862H221.386V60.8969H205.587V33.395V33.3962Z" fill="white"/>
<path d="M96.4114 64.9929C96.9432 64.8586 97.5392 64.7634 98.2005 64.7083C98.8607 64.6521 99.5346 64.6383 100.221 64.6658C100.907 64.6934 101.585 64.7668 102.254 64.8839C102.924 65.0009 103.541 65.1719 104.108 65.3957V65.3785C104.399 65.4566 104.575 65.5541 104.635 65.6723C104.694 65.7894 104.665 65.8927 104.544 65.9822L104.441 66.0659C104.424 66.0889 104.416 66.105 104.416 66.1164C104.416 66.1279 104.407 66.1394 104.391 66.1497C104.15 66.4068 103.953 66.6696 103.798 66.9382C103.643 67.2067 103.524 67.5028 103.438 67.8264C103.335 67.9722 103.207 68.0697 103.052 68.1202C102.897 68.1707 102.769 68.1684 102.666 68.1122C101.842 67.7656 100.916 67.5923 99.8865 67.5923C99.4911 67.5923 99.1231 67.5957 98.7805 67.6003C98.4366 67.6061 98.0939 67.6703 97.7512 67.7931C97.6137 67.8826 97.498 67.9779 97.404 68.0778C97.31 68.1787 97.263 68.274 97.263 68.3624C97.263 68.5529 97.3914 68.7147 97.6481 68.849C97.9048 68.9832 98.2383 69.1083 98.6487 69.2265C99.059 69.3436 99.5117 69.4584 100.008 69.5708C100.504 69.6821 100.983 69.8004 101.445 69.9232C101.992 70.0804 102.458 70.233 102.843 70.3845C103.229 70.536 103.498 70.6553 103.651 70.7449C103.874 70.8791 104.104 71.0386 104.344 71.2223C104.583 71.407 104.792 71.5998 104.972 71.8007C105.152 72.0015 105.293 72.2092 105.396 72.4215C105.498 72.6339 105.524 72.8404 105.473 73.0424C105.473 73.7023 105.311 74.2578 104.987 74.7111C104.662 75.1644 104.223 75.5351 103.669 75.8266C103.114 76.1169 102.482 76.335 101.774 76.4807C101.066 76.6253 100.325 76.7206 99.5541 76.7654C98.9535 76.7872 98.3484 76.7872 97.7398 76.7654C97.13 76.7424 96.5306 76.6988 95.9381 76.6311C95.3467 76.5645 94.7805 76.4853 94.2395 76.3958C93.6986 76.3063 93.1977 76.2053 92.7347 76.094C92.6487 76.094 92.5708 76.0378 92.5032 75.9264C92.4344 75.8151 92.4516 75.6808 92.5548 75.5236C92.7427 75.2333 92.9192 74.9509 93.082 74.6767C93.2447 74.4024 93.3261 74.0868 93.3261 73.7299C93.2229 73.5738 93.2447 73.4613 93.3903 73.3947C93.5358 73.3282 93.7123 73.2938 93.9175 73.2938C94.2946 73.4051 94.698 73.5141 95.1266 73.6208C95.5553 73.7276 95.9931 73.8194 96.4389 73.8974C96.8848 73.9754 97.3398 74.034 97.8028 74.073C98.2659 74.112 98.7117 74.1155 99.1415 74.081C99.5873 74.0696 99.9988 73.9995 100.377 73.871C100.754 73.7425 100.943 73.5336 100.943 73.2421C100.943 73.1755 100.909 73.0665 100.84 72.915C100.771 72.7647 100.617 72.627 100.377 72.5042C99.7077 72.2471 98.9696 72.0325 98.1638 71.8592C97.357 71.6859 96.5811 71.4736 95.8349 71.2223C95.0888 70.9709 94.4275 70.6381 93.8533 70.225C93.278 69.8118 92.9055 69.2415 92.7335 68.515C92.682 68.1019 92.7462 67.7048 92.9261 67.3249C93.106 66.945 93.3639 66.6007 93.6986 66.2932C94.0332 65.9856 94.4355 65.7205 94.9077 65.4967C95.3799 65.2729 95.8808 65.1054 96.4126 64.9941L96.4114 64.9929ZM102.588 67.2905C102.674 67.0667 102.79 66.8349 102.935 66.595C103.081 66.3552 103.248 66.1394 103.437 65.95C102.837 65.7148 102.15 65.5369 101.379 65.4129C100.606 65.2901 99.8303 65.2374 99.0498 65.2534C98.2693 65.2706 97.5186 65.3601 96.7977 65.522C96.0768 65.6838 95.4762 65.9328 94.996 66.2679C94.4986 66.626 94.1421 67.0586 93.9278 67.5671C93.7135 68.0755 93.7605 68.5816 94.0699 69.0842C94.2579 69.3861 94.4562 69.6236 94.6613 69.7969C94.8676 69.9702 95.0865 70.1125 95.3169 70.225C95.5484 70.3363 95.7891 70.4293 96.0378 70.5016C96.2865 70.5739 96.5478 70.6668 96.8229 70.7781C97.1312 70.9009 97.4831 71.0191 97.8785 71.1305C98.2727 71.2418 98.6762 71.3542 99.0876 71.4656C99.4991 71.5769 99.8945 71.6951 100.272 71.8179C100.649 71.9407 100.983 72.075 101.276 72.2207C101.482 72.3435 101.635 72.5088 101.739 72.7153C101.842 72.9219 101.884 73.1044 101.867 73.2605C101.833 73.5623 101.678 73.8056 101.404 73.9904C101.129 74.1751 100.795 74.3174 100.4 74.4184C100.005 74.5194 99.585 74.5837 99.1392 74.6112C98.6934 74.6388 98.2899 74.6422 97.93 74.6193C97.2779 74.563 96.6475 74.4965 96.0389 74.4184C95.4304 74.3404 94.8252 74.2394 94.2246 74.1166C94.1559 74.6089 93.9587 75.0887 93.6321 75.558C94.5066 75.7485 95.3994 75.8908 96.3083 75.9861C97.2172 76.0814 98.1272 76.1123 99.036 76.0779C99.7398 76.0664 100.417 76.0022 101.069 75.8851C101.721 75.7681 102.3 75.5913 102.807 75.3572C103.312 75.1219 103.716 74.8178 104.016 74.4437C104.316 74.0696 104.466 73.6082 104.466 73.0608C104.466 72.7475 104.363 72.4606 104.158 72.1978C103.952 71.9349 103.678 71.7008 103.334 71.4931C102.99 71.2865 102.6 71.0995 102.163 70.9319C101.725 70.7644 101.274 70.6129 100.811 70.4798C100.28 70.3237 99.7558 70.1837 99.2412 70.0609C98.7266 69.9381 98.259 69.8038 97.8384 69.658C97.4177 69.5134 97.0659 69.3424 96.7828 69.1462C96.4997 68.9511 96.3324 68.7078 96.2808 68.4163C96.2808 68.1374 96.4011 67.8907 96.6407 67.6784C96.8114 67.5223 97.0269 67.3938 97.2836 67.2928C97.5404 67.1918 97.8154 67.1172 98.1077 67.0667C98.3988 67.0162 98.7037 66.9829 99.0211 66.9657C99.3386 66.9485 99.6515 66.9404 99.961 66.9404C100.39 66.929 100.823 66.9485 101.261 66.999C101.698 67.0495 102.14 67.147 102.586 67.2928L102.588 67.2905Z" fill="white"/>
<path d="M108.068 65.3453C108.068 65.3235 108.077 65.3063 108.094 65.2948C108.025 65.2168 108.012 65.1296 108.055 65.0355C108.097 64.9402 108.213 64.8702 108.402 64.8254C108.573 64.7807 108.86 64.7497 109.264 64.7336C109.667 64.7164 110.088 64.7141 110.525 64.7256C110.962 64.7371 111.374 64.7486 111.76 64.7589C112.146 64.7704 112.417 64.7761 112.57 64.7761C115.109 64.7428 117.64 64.7256 120.162 64.7256C120.351 64.7704 120.48 64.8369 120.549 64.9264C120.617 65.0159 120.617 65.1055 120.549 65.195C120.549 65.4853 120.557 65.7734 120.574 66.058C120.591 66.3426 120.582 66.6307 120.549 66.921C120.805 66.9876 120.926 67.1024 120.908 67.2653C120.891 67.4271 120.737 67.5247 120.445 67.5591C119.176 67.5591 117.927 67.5534 116.701 67.5419C115.474 67.5304 114.235 67.5247 112.982 67.5247C112.982 67.8013 112.994 68.0893 113.021 68.3877C113.046 68.6861 113.051 68.9741 113.033 69.2507C113.428 69.2507 113.895 69.2484 114.436 69.2427C114.976 69.2369 115.539 69.2312 116.122 69.2255C116.706 69.2197 117.289 69.2197 117.872 69.2255C118.456 69.2312 118.978 69.245 119.443 69.2679C119.546 69.2909 119.622 69.3127 119.674 69.3356C119.726 69.3586 119.785 69.3976 119.854 69.4539C119.923 69.5893 119.97 69.7545 119.995 69.9519C120.02 70.1493 120.034 70.3513 120.034 70.559C120.034 70.7668 120.021 70.9699 119.995 71.1661C119.97 71.3635 119.922 71.5288 119.854 71.6642C119.768 71.7767 119.69 71.8501 119.622 71.8834C119.519 71.9741 119.391 72.0246 119.236 72.0349C118.173 72.0349 117.126 72.0326 116.097 72.0269C115.068 72.0211 114.029 72.0188 112.983 72.0188V74.0478C114.183 74.0478 115.381 74.0398 116.573 74.0226C117.765 74.0054 118.953 73.9973 120.137 73.9973C120.24 73.9859 120.339 73.9836 120.433 73.9893C120.527 73.995 120.617 73.9973 120.703 73.9973C120.806 74.0203 120.888 74.0398 120.947 74.0559C121.007 74.0731 121.046 74.1144 121.063 74.1821C121.201 74.8523 121.201 75.5122 121.063 76.1606C121.286 76.3064 121.286 76.4843 121.063 76.6977C120.891 76.7643 120.625 76.809 120.265 76.832C119.906 76.8538 119.523 76.8653 119.12 76.8653C118.718 76.8653 118.326 76.8595 117.949 76.8481C117.572 76.8366 117.297 76.8308 117.126 76.8308H108.995C108.977 76.8308 108.965 76.8274 108.956 76.8228C108.946 76.8171 108.934 76.8148 108.917 76.8148C108.779 76.8366 108.654 76.8205 108.543 76.7643C108.431 76.7081 108.358 76.6185 108.324 76.4957C108.341 75.9036 108.346 75.3079 108.337 74.71C108.328 74.1121 108.298 73.5165 108.246 72.9243C108.212 72.3872 108.19 71.8008 108.182 71.1638C108.173 70.5269 108.169 69.8762 108.169 69.2106C108.169 68.5449 108.165 67.8839 108.157 67.224C108.148 66.5641 108.118 65.9387 108.066 65.3465L108.068 65.3453ZM111.98 67.2424C111.98 67.2091 112.005 67.1643 112.057 67.1069C112.091 66.9612 112.263 66.8763 112.572 66.8545C113.756 66.8545 114.926 66.8602 116.084 66.8717C117.242 66.8832 118.404 66.8889 119.571 66.8889C119.605 66.6353 119.613 66.3828 119.596 66.1349C119.579 65.8859 119.562 65.6345 119.545 65.3809C117.211 65.3809 114.878 65.3981 112.545 65.4314C112.511 65.4314 112.356 65.4291 112.082 65.4234C111.807 65.4176 111.486 65.4119 111.117 65.4061C110.748 65.4004 110.374 65.3981 109.997 65.3981C109.62 65.3981 109.311 65.4039 109.071 65.4153C109.106 66.0178 109.126 66.6456 109.136 67.2986C109.144 67.9516 109.148 68.6046 109.148 69.2576C109.148 69.9106 109.153 70.5407 109.161 71.1489C109.169 71.7572 109.191 72.3126 109.225 72.8141C109.259 73.3834 109.289 73.9446 109.315 74.4966C109.341 75.0486 109.345 75.604 109.328 76.1618C111.13 76.1618 112.927 76.1595 114.719 76.1537C116.512 76.148 118.292 76.1457 120.059 76.1457C120.111 75.9024 120.133 75.6568 120.123 75.4078C120.114 75.1587 120.128 74.9132 120.162 74.6699C119.836 74.6928 119.51 74.6974 119.185 74.6871C118.858 74.6756 118.523 74.6756 118.181 74.6871C117.255 74.6871 116.337 74.6905 115.427 74.6951C114.517 74.7008 113.59 74.7031 112.647 74.7031C112.51 74.7479 112.372 74.7456 112.236 74.6951C112.098 74.6446 112.012 74.5471 111.978 74.4025V71.6998C112.012 71.6103 112.072 71.5414 112.158 71.4909C112.244 71.4404 112.338 71.4106 112.441 71.3991C112.458 71.3991 112.475 71.3968 112.492 71.3911C112.51 71.3853 112.535 71.383 112.569 71.383C113.633 71.383 114.693 71.3865 115.747 71.3911C116.803 71.3968 117.853 71.3991 118.9 71.3991C118.969 71.196 119.016 70.9561 119.041 70.6784C119.067 70.4018 119.046 70.1505 118.977 69.9232C118.445 69.9118 117.887 69.906 117.304 69.906H115.58C115.014 69.906 114.47 69.9095 113.946 69.9141C113.422 69.9198 112.956 69.9221 112.543 69.9221C112.388 69.8991 112.286 69.8716 112.235 69.8372C112.097 69.8039 112.011 69.7476 111.977 69.6685C111.942 69.5904 111.96 69.5112 112.028 69.432C112.063 69.0946 112.063 68.7263 112.028 68.328C111.994 67.9286 111.977 67.566 111.977 67.2401L111.98 67.2424Z" fill="white"/>
<path d="M124.565 76.4785C124.41 76.5348 124.235 76.537 124.037 76.4865C123.84 76.4361 123.742 76.3385 123.742 76.1928C123.845 74.3933 123.904 72.6248 123.922 70.8861C123.939 69.1486 123.947 67.3789 123.947 65.5794C123.861 65.4784 123.831 65.3729 123.856 65.2604C123.882 65.1491 123.989 65.0699 124.178 65.0251C125.053 64.869 125.911 64.7761 126.751 64.7485C127.592 64.721 128.502 64.7176 129.479 64.7405C130.063 64.752 130.65 64.7887 131.242 64.8495C131.833 64.9115 132.413 65.0068 132.979 65.1341C133.546 65.2627 134.082 65.4245 134.587 65.6207C135.093 65.817 135.552 66.0591 135.964 66.3506C136.444 66.7087 136.826 67.0518 137.109 67.3824C137.392 67.7117 137.55 68.0732 137.584 68.4634C137.602 68.8318 137.567 69.1991 137.481 69.5617C137.395 69.9255 137.237 70.2664 137.006 70.5843C136.774 70.9033 136.466 71.196 136.08 71.4645C135.693 71.733 135.218 71.9511 134.652 72.1186C134.977 72.409 135.265 72.7108 135.513 73.0241C135.762 73.3374 136.003 73.6507 136.234 73.9629C136.466 74.2762 136.71 74.5838 136.968 74.8856C137.225 75.1874 137.525 75.4675 137.869 75.7245H137.894C138.014 75.8473 138.052 75.9736 138.01 76.1021C137.966 76.2306 137.911 76.3396 137.842 76.4292C137.653 76.4406 137.331 76.4544 136.877 76.4716C136.422 76.4888 135.955 76.4992 135.475 76.5049C134.994 76.5107 134.556 76.5072 134.162 76.4969C133.767 76.4854 133.535 76.4579 133.468 76.4131C133.158 76.2455 132.867 75.9942 132.593 75.6591C132.318 75.324 132.053 75.0107 131.795 74.7203C131.658 74.5861 131.534 74.4518 131.422 74.3175C131.311 74.1832 131.19 74.0409 131.062 73.8895C130.934 73.7391 130.787 73.5681 130.624 73.3776C130.46 73.1871 130.268 72.9587 130.045 72.6902C129.839 72.6902 129.612 72.6879 129.363 72.6821C129.115 72.6764 128.896 72.6856 128.708 72.7074C128.794 73.2445 128.841 73.7942 128.849 74.3588C128.857 74.9235 128.861 75.4847 128.861 76.0436C128.793 76.1446 128.685 76.2192 128.539 76.2696C128.394 76.3201 128.252 76.3454 128.114 76.3454C128.028 76.412 127.917 76.4464 127.779 76.4464C127.454 76.4797 127.166 76.5026 126.918 76.5129C126.669 76.5244 126.428 76.5267 126.197 76.521C125.965 76.5152 125.724 76.5072 125.476 76.4957C125.227 76.4843 124.939 76.4785 124.614 76.4785H124.562H124.565ZM133.417 72.1921C133.348 72.0693 133.353 71.958 133.43 71.857C133.507 71.7571 133.622 71.7009 133.777 71.6894C133.811 71.6676 133.837 71.6424 133.854 71.6137C133.871 71.5861 133.913 71.5609 133.982 71.5379C134.908 71.2924 135.573 70.9274 135.977 70.442C136.38 69.9565 136.582 69.4286 136.582 68.8594V68.6838C136.582 68.623 136.572 68.5644 136.556 68.5082C136.47 68.0618 136.217 67.6739 135.798 67.3445C135.377 67.0151 134.927 66.6892 134.446 66.3656C133.829 66.0305 133.078 65.7963 132.194 65.6632C131.311 65.5289 130.44 65.4566 129.582 65.4452C128.741 65.4337 127.961 65.4429 127.241 65.4704C126.52 65.4979 125.783 65.5737 125.028 65.6965C125.028 67.4042 125.018 69.0866 125.002 70.7438C124.985 72.401 124.934 74.0777 124.848 75.7739C125.139 75.7739 125.401 75.7796 125.633 75.7911C125.864 75.8026 126.087 75.8106 126.302 75.8163C126.516 75.8221 126.74 75.8198 126.971 75.8083C127.203 75.7968 127.473 75.775 127.782 75.7417C127.782 75.2505 127.773 74.7502 127.757 74.2406C127.739 73.7322 127.696 73.2376 127.628 72.7567C127.611 72.6787 127.589 72.5972 127.564 72.5134C127.539 72.4297 127.539 72.3539 127.564 72.2874C127.589 72.2208 127.65 72.1703 127.744 72.137C127.838 72.1037 127.988 72.0923 128.194 72.1037C128.52 72.1267 128.859 72.1267 129.211 72.1037C129.563 72.0819 129.91 72.0704 130.253 72.0704C130.492 72.0704 130.664 72.1095 130.767 72.1875C130.871 72.2655 130.999 72.4113 131.154 72.6236C131.326 72.8474 131.531 73.1045 131.771 73.3948C132.012 73.6852 132.269 73.9813 132.544 74.2831C132.818 74.5849 133.085 74.8695 133.342 75.1381C133.599 75.4066 133.822 75.6304 134.011 75.8083H136.636C136.327 75.5294 136.052 75.231 135.813 74.9131C135.572 74.5952 135.337 74.2774 135.104 73.9583C134.872 73.6393 134.624 73.3306 134.358 73.0299C134.092 72.728 133.779 72.4492 133.418 72.1932L133.417 72.1921ZM127.704 67.628C127.704 67.5384 127.751 67.4765 127.846 67.4432C127.941 67.4099 128.04 67.387 128.144 67.3755C128.213 67.263 128.359 67.1792 128.583 67.123C129.117 67.123 129.66 67.1345 130.212 67.1563C130.763 67.1792 131.259 67.2458 131.698 67.3583C132.137 67.4707 132.504 67.636 132.797 67.8552C133.089 68.0744 133.262 68.3808 133.314 68.7733C133.314 69.2335 133.159 69.5904 132.849 69.8429C132.538 70.0954 132.146 70.2836 131.673 70.4075C131.198 70.5315 130.686 70.6072 130.135 70.6348C129.583 70.6634 129.067 70.6772 128.584 70.6772C128.394 70.6772 128.256 70.6325 128.17 70.5429C128.05 70.5315 127.942 70.4925 127.847 70.4247C127.752 70.357 127.705 70.256 127.705 70.1218C127.825 69.6948 127.855 69.2794 127.796 68.8754C127.735 68.4715 127.705 68.056 127.705 67.6291L127.704 67.628ZM128.785 67.776C128.802 68.1673 128.832 68.5334 128.875 68.8743C128.918 69.2151 128.897 69.5812 128.811 69.9726H129.879C130.283 69.9726 130.655 69.9393 130.999 69.8716C131.342 69.805 131.634 69.6903 131.873 69.5273C132.114 69.3655 132.233 69.1164 132.233 68.7813C132.233 68.5128 132.121 68.3097 131.899 68.1696C131.675 68.0296 131.392 67.9321 131.049 67.8758C130.706 67.8196 130.333 67.7898 129.93 67.784C129.526 67.7783 129.144 67.776 128.785 67.776Z" fill="white"/>
<path d="M140.596 72.6729C140.562 71.5103 140.528 70.3535 140.493 69.2024C140.459 68.0513 140.433 66.8888 140.417 65.7148C140.399 65.6252 140.387 65.5357 140.378 65.4462C140.368 65.3567 140.417 65.2844 140.52 65.2282C140.606 65.1272 140.727 65.0778 140.882 65.0778C141.037 65.0778 141.183 65.0721 141.322 65.0606C141.909 65.0491 142.512 65.0411 143.133 65.0354C143.754 65.0296 144.358 65.0388 144.944 65.0606C145.168 65.1054 145.314 65.2064 145.384 65.3624C145.521 65.7538 145.586 66.1589 145.577 66.5778C145.568 66.9967 145.582 67.4075 145.616 67.8103C145.651 68.235 145.659 68.6596 145.642 69.0842C145.624 69.5088 145.598 69.9369 145.565 70.3673C145.53 70.7976 145.496 71.2257 145.462 71.6503C145.427 72.075 145.418 72.4996 145.437 72.9242C145.454 73.1813 145.475 73.4579 145.501 73.7539C145.526 74.05 145.548 74.3496 145.565 74.6514C145.582 74.9532 145.577 75.247 145.552 75.5316C145.527 75.8163 145.462 76.071 145.359 76.2948C145.307 76.3843 145.255 76.4451 145.203 76.4796C145.151 76.5129 145.056 76.5404 144.917 76.5634C144.572 76.5748 144.27 76.5852 144.011 76.5966C143.752 76.6081 143.501 76.6139 143.259 76.6139C143.017 76.6139 142.766 76.6104 142.507 76.6058C142.248 76.6001 141.945 76.592 141.6 76.5806C141.377 76.592 141.167 76.5691 140.97 76.514C140.773 76.4578 140.665 76.3189 140.648 76.0951V75.1059C140.648 74.6927 140.643 74.2842 140.635 73.8813C140.626 73.4785 140.614 73.0768 140.596 72.674V72.6729ZM141.652 75.0714C141.652 75.138 141.66 75.2585 141.677 75.4318C141.694 75.6051 141.694 75.7692 141.677 75.9253C141.986 75.9368 142.243 75.9425 142.45 75.9425H143.055C143.252 75.9425 143.454 75.9402 143.66 75.9345C143.866 75.9287 144.123 75.9207 144.433 75.9092C144.484 75.7198 144.514 75.4938 144.523 75.231C144.531 74.9681 144.528 74.7007 144.51 74.4276C144.493 74.1545 144.476 73.8859 144.459 73.6243C144.442 73.3615 144.424 73.1354 144.407 72.946C144.39 72.3997 144.395 71.8213 144.42 71.2131C144.445 70.6048 144.471 69.9886 144.497 69.3631C144.522 68.7388 144.536 68.1156 144.536 67.497C144.536 66.8785 144.501 66.2783 144.433 65.6976C143.935 65.6861 143.433 65.6861 142.928 65.6976C142.421 65.709 141.919 65.7148 141.422 65.7148C141.439 66.875 141.464 68.0307 141.498 69.1795C141.533 70.3294 141.567 71.4782 141.602 72.6281C141.619 73.0298 141.631 73.4349 141.641 73.8412C141.649 74.2486 141.653 74.6583 141.653 75.0714H141.652Z" fill="white"/>
<path d="M148.78 65.3453C148.78 65.3235 148.788 65.3063 148.805 65.2948C148.736 65.2168 148.724 65.1296 148.766 65.0355C148.809 64.9402 148.924 64.8702 149.113 64.8254C149.284 64.7807 149.572 64.7497 149.975 64.7336C150.379 64.7164 150.799 64.7141 151.236 64.7256C151.674 64.7371 152.085 64.7486 152.472 64.7589C152.858 64.7704 153.128 64.7761 153.282 64.7761C155.821 64.7428 158.351 64.7256 160.874 64.7256C161.063 64.7704 161.191 64.8369 161.26 64.9264C161.329 65.0159 161.329 65.1055 161.26 65.195C161.26 65.4853 161.268 65.7734 161.285 66.058C161.302 66.3426 161.293 66.6307 161.26 66.921C161.517 66.9876 161.637 67.1024 161.62 67.2653C161.603 67.4271 161.448 67.5247 161.157 67.5591C159.887 67.5591 158.639 67.5534 157.412 67.5419C156.185 67.5304 154.946 67.5247 153.693 67.5247C153.693 67.8013 153.706 68.0893 153.732 68.3877C153.757 68.6861 153.762 68.9741 153.745 69.2507C154.139 69.2507 154.607 69.2484 155.148 69.2427C155.688 69.2369 156.25 69.2312 156.834 69.2255C157.417 69.2197 158 69.2197 158.584 69.2255C159.167 69.2312 159.69 69.245 160.154 69.2679C160.257 69.2909 160.334 69.3127 160.385 69.3356C160.437 69.3586 160.497 69.3976 160.565 69.4539C160.634 69.5893 160.681 69.7545 160.706 69.9519C160.732 70.1493 160.745 70.3513 160.745 70.559C160.745 70.7668 160.733 70.9699 160.706 71.1661C160.681 71.3635 160.633 71.5288 160.565 71.6642C160.479 71.7767 160.402 71.8501 160.334 71.8834C160.231 71.9741 160.102 72.0246 159.948 72.0349C158.884 72.0349 157.838 72.0326 156.808 72.0269C155.779 72.0211 154.741 72.0188 153.694 72.0188V74.0478C154.894 74.0478 156.092 74.0398 157.284 74.0226C158.476 74.0054 159.665 73.9973 160.849 73.9973C160.952 73.9859 161.05 73.9836 161.144 73.9893C161.238 73.995 161.329 73.9973 161.415 73.9973C161.518 74.0203 161.599 74.0398 161.659 74.0559C161.718 74.0731 161.757 74.1144 161.775 74.1821C161.912 74.8523 161.912 75.5122 161.775 76.1606C161.997 76.3064 161.997 76.4843 161.775 76.6977C161.603 76.7643 161.337 76.809 160.977 76.832C160.617 76.8538 160.234 76.8653 159.832 76.8653C159.43 76.8653 159.038 76.8595 158.661 76.8481C158.284 76.8366 158.008 76.8308 157.838 76.8308H149.706C149.689 76.8308 149.676 76.8274 149.667 76.8228C149.658 76.8171 149.645 76.8148 149.628 76.8148C149.49 76.8366 149.366 76.8205 149.254 76.7643C149.142 76.7081 149.07 76.6185 149.035 76.4957C149.053 75.9036 149.057 75.3079 149.048 74.71C149.039 74.1121 149.009 73.5165 148.958 72.9243C148.923 72.3872 148.901 71.8008 148.893 71.1638C148.884 70.5269 148.881 69.8762 148.881 69.2106C148.881 68.5449 148.876 67.8839 148.868 67.224C148.859 66.5641 148.829 65.9387 148.778 65.3465L148.78 65.3453ZM152.692 67.2424C152.692 67.2091 152.717 67.1643 152.768 67.1069C152.803 66.9612 152.975 66.8763 153.283 66.8545C154.467 66.8545 155.637 66.8602 156.796 66.8717C157.953 66.8832 159.116 66.8889 160.282 66.8889C160.317 66.6353 160.325 66.3828 160.308 66.1349C160.29 65.8859 160.273 65.6345 160.256 65.3809C157.922 65.3809 155.589 65.3981 153.257 65.4314C153.222 65.4314 153.068 65.4291 152.794 65.4234C152.519 65.4176 152.198 65.4119 151.829 65.4061C151.46 65.4004 151.086 65.3981 150.709 65.3981C150.332 65.3981 150.022 65.4039 149.783 65.4153C149.817 66.0178 149.838 66.6456 149.847 67.2986C149.855 67.9516 149.86 68.6046 149.86 69.2576C149.86 69.9106 149.864 70.5407 149.872 71.1489C149.88 71.7572 149.902 72.3126 149.936 72.8141C149.971 73.3834 150.001 73.9446 150.027 74.4966C150.052 75.0486 150.057 75.604 150.039 76.1618C151.841 76.1618 153.638 76.1595 155.431 76.1537C157.223 76.148 159.003 76.1457 160.771 76.1457C160.822 75.9024 160.844 75.6568 160.835 75.4078C160.826 75.1587 160.839 74.9132 160.874 74.6699C160.547 74.6928 160.222 74.6974 159.896 74.6871C159.569 74.6756 159.235 74.6756 158.892 74.6871C157.966 74.6871 157.048 74.6905 156.138 74.6951C155.228 74.7008 154.302 74.7031 153.359 74.7031C153.221 74.7479 153.084 74.7456 152.947 74.6951C152.81 74.6446 152.724 74.5471 152.689 74.4025V71.6998C152.724 71.6103 152.783 71.5414 152.869 71.4909C152.955 71.4404 153.049 71.4106 153.152 71.3991C153.17 71.3991 153.187 71.3968 153.204 71.3911C153.221 71.3853 153.246 71.383 153.281 71.383C154.344 71.383 155.404 71.3865 156.459 71.3911C157.514 71.3968 158.564 71.3991 159.612 71.3991C159.681 71.196 159.728 70.9561 159.753 70.6784C159.778 70.4018 159.757 70.1505 159.689 69.9232C159.157 69.9118 158.599 69.906 158.015 69.906H156.292C155.725 69.906 155.181 69.9095 154.657 69.9141C154.133 69.9198 153.667 69.9221 153.254 69.9221C153.1 69.8991 152.998 69.8716 152.946 69.8372C152.809 69.8039 152.723 69.7476 152.688 69.6685C152.654 69.5904 152.671 69.5112 152.74 69.432C152.774 69.0946 152.774 68.7263 152.74 68.328C152.705 67.9286 152.688 67.566 152.688 67.2401L152.692 67.2424Z" fill="white"/>
<path d="M167.771 64.9929C168.303 64.8586 168.899 64.7634 169.56 64.7083C170.22 64.6521 170.894 64.6383 171.58 64.6658C172.266 64.6934 172.944 64.7668 173.613 64.8839C174.282 65.0009 174.9 65.1719 175.466 65.3957V65.3785C175.757 65.4566 175.934 65.5541 175.993 65.6723C176.053 65.7894 176.023 65.8927 175.903 65.9822L175.8 66.0659C175.783 66.0889 175.774 66.105 175.774 66.1164C175.774 66.1279 175.765 66.1394 175.749 66.1497C175.509 66.4068 175.311 66.6696 175.158 66.9382C175.004 67.2067 174.883 67.5028 174.798 67.8264C174.695 67.9722 174.566 68.0697 174.412 68.1202C174.257 68.1707 174.129 68.1684 174.026 68.1122C173.201 67.7656 172.275 67.5923 171.246 67.5923C170.851 67.5923 170.483 67.5957 170.139 67.6003C169.795 67.6061 169.453 67.6703 169.11 67.7931C168.972 67.8826 168.857 67.9779 168.763 68.0778C168.669 68.1787 168.622 68.274 168.622 68.3624C168.622 68.5529 168.75 68.7147 169.007 68.849C169.263 68.9832 169.597 69.1083 170.007 69.2265C170.418 69.3436 170.87 69.4584 171.367 69.5708C171.863 69.6821 172.342 69.8004 172.804 69.9232C173.352 70.0804 173.817 70.233 174.202 70.3845C174.587 70.536 174.856 70.6553 175.01 70.7449C175.232 70.8791 175.464 71.0386 175.702 71.2223C175.942 71.407 176.152 71.5998 176.33 71.8007C176.509 72.0015 176.651 72.2092 176.753 72.4215C176.855 72.6339 176.882 72.8404 176.83 73.0424C176.83 73.7023 176.668 74.2578 176.344 74.7111C176.02 75.1644 175.581 75.5351 175.026 75.8266C174.471 76.1169 173.84 76.335 173.132 76.4807C172.423 76.6253 171.683 76.7206 170.912 76.7654C170.311 76.7872 169.706 76.7872 169.097 76.7654C168.489 76.7424 167.888 76.6988 167.296 76.6311C166.704 76.5645 166.138 76.4853 165.597 76.3958C165.057 76.3063 164.555 76.2053 164.092 76.094C164.006 76.094 163.929 76.0378 163.861 75.9264C163.792 75.8151 163.809 75.6808 163.912 75.5236C164.101 75.2333 164.277 74.9509 164.439 74.6767C164.602 74.4024 164.684 74.0868 164.684 73.7299C164.58 73.5738 164.602 73.4613 164.748 73.3947C164.893 73.3282 165.07 73.2938 165.275 73.2938C165.652 73.4051 166.055 73.5141 166.484 73.6208C166.913 73.7276 167.351 73.8194 167.796 73.8974C168.242 73.9754 168.697 74.034 169.16 74.073C169.623 74.112 170.069 74.1155 170.499 74.081C170.945 74.0696 171.356 73.9995 171.734 73.871C172.111 73.7425 172.301 73.5336 172.301 73.2421C172.301 73.1755 172.266 73.0665 172.197 72.915C172.129 72.7647 171.974 72.627 171.734 72.5042C171.065 72.2471 170.327 72.0325 169.521 71.8592C168.714 71.6859 167.938 71.4736 167.192 71.2223C166.446 70.9709 165.785 70.6381 165.211 70.225C164.635 69.8118 164.263 69.2415 164.091 68.515C164.039 68.1019 164.104 67.7048 164.284 67.3249C164.463 66.945 164.721 66.6007 165.056 66.2932C165.391 65.9856 165.794 65.7205 166.265 65.4967C166.737 65.2729 167.238 65.1054 167.77 64.9941L167.771 64.9929ZM173.948 67.2905C174.034 67.0667 174.149 66.8349 174.295 66.595C174.44 66.3552 174.608 66.1394 174.797 65.95C174.196 65.7148 173.51 65.5369 172.738 65.4129C171.967 65.2901 171.19 65.2374 170.41 65.2534C169.629 65.2706 168.878 65.3601 168.157 65.522C167.436 65.6838 166.836 65.9328 166.356 66.2679C165.858 66.626 165.502 67.0586 165.288 67.5671C165.073 68.0755 165.12 68.5816 165.428 69.0842C165.618 69.3861 165.815 69.6236 166.02 69.7969C166.226 69.9702 166.445 70.1125 166.677 70.225C166.908 70.3363 167.149 70.4293 167.398 70.5016C167.646 70.5739 167.908 70.6668 168.183 70.7781C168.492 70.9009 168.843 71.0191 169.238 71.1305C169.632 71.2418 170.036 71.3542 170.447 71.4656C170.859 71.5769 171.253 71.6951 171.631 71.8179C172.008 71.9407 172.343 72.075 172.635 72.2207C172.84 72.3435 172.995 72.5088 173.098 72.7153C173.201 72.9219 173.244 73.1044 173.227 73.2605C173.192 73.5623 173.038 73.8056 172.764 73.9904C172.49 74.1751 172.155 74.3174 171.76 74.4184C171.364 74.5194 170.945 74.5837 170.499 74.6112C170.053 74.6388 169.65 74.6422 169.29 74.6193C168.638 74.563 168.007 74.4965 167.399 74.4184C166.789 74.3404 166.185 74.2394 165.584 74.1166C165.516 74.6089 165.318 75.0887 164.993 75.558C165.867 75.7485 166.76 75.8908 167.669 75.9861C168.578 76.0814 169.488 76.1123 170.397 76.0779C171.101 76.0664 171.778 76.0022 172.43 75.8851C173.082 75.7681 173.661 75.5913 174.168 75.3572C174.673 75.1219 175.077 74.8178 175.377 74.4437C175.677 74.0696 175.827 73.6082 175.827 73.0608C175.827 72.7475 175.724 72.4606 175.518 72.1978C175.313 71.9349 175.038 71.7008 174.695 71.4931C174.351 71.2865 173.961 71.0995 173.524 70.9319C173.086 70.7644 172.635 70.6129 172.172 70.4798C171.64 70.3237 171.117 70.1837 170.602 70.0609C170.087 69.9381 169.62 69.8038 169.199 69.658C168.779 69.5134 168.427 69.3424 168.144 69.1462C167.861 68.9511 167.693 68.7078 167.642 68.4163C167.642 68.1374 167.761 67.8907 168.002 67.6784C168.173 67.5223 168.388 67.3938 168.646 67.2928C168.902 67.1918 169.177 67.1172 169.469 67.0667C169.76 67.0162 170.065 66.9829 170.382 66.9657C170.699 66.9485 171.012 66.9404 171.322 66.9404C171.75 66.929 172.184 66.9485 172.622 66.999C173.059 67.0495 173.501 67.147 173.946 67.2928L173.948 67.2905Z" fill="white"/>
<path d="M53.0356 25.1597C106.912 12.2075 163.086 12.2075 216.964 25.1597" stroke="white" stroke-width="15" stroke-miterlimit="10" stroke-linecap="round"/>
<path d="M178.707 24.5995C149.38 19.5327 119.946 19.5327 90.6187 24.5995C89.8382 20.367 89.0749 16.1345 88.3276 11.8998C119.212 6.57475 150.113 6.57475 180.997 11.8998C180.251 16.1334 179.488 20.367 178.706 24.5995H178.707Z" fill="white"/>
<path d="M48.272 75.5879C78.0561 85.0387 106.55 88.8385 135.042 88.9188C163.535 88.8385 192.028 85.0387 221.812 75.5879" stroke="white" stroke-width="15" stroke-miterlimit="10" stroke-linecap="round"/>
<path d="M188.854 90.4659C169.774 93.4084 152.437 94.6524 135.042 94.6731C117.648 94.6536 100.309 93.4084 81.231 90.4659C81.6057 86.1244 82.1696 81.8058 82.9272 77.5171C101.46 80.5468 118.217 81.753 135.043 81.7805C151.868 81.7542 168.627 80.548 187.16 77.5171C187.917 81.8058 188.48 86.1244 188.856 90.4659H188.854Z" fill="white"/>
<path d="M134.663 25.2123C141.217 25.2123 146.531 19.8918 146.531 13.3286C146.531 6.76537 141.217 1.44482 134.663 1.44482C128.108 1.44482 122.795 6.76537 122.795 13.3286C122.795 19.8918 128.108 25.2123 134.663 25.2123Z" fill="white"/>
<path d="M131.673 9.32462C131.673 9.32462 131.527 8.75425 130.945 8.68539C130.363 8.61653 128.927 8.68539 128.927 8.68539V13.5904H129.925V11.5522H130.882C130.882 11.5522 131.652 11.4833 131.673 10.6719C131.693 9.86057 131.673 9.32462 131.673 9.32462ZM130.689 10.5687C130.689 10.7626 130.507 10.8361 130.507 10.8361H129.925V9.30741H130.419C130.648 9.30741 130.689 9.62301 130.689 9.62301V10.5687Z" fill="#2C302F"/>
<path d="M133.79 8.64185H132.542L131.682 13.6042H132.612L132.75 12.6712H133.582L133.721 13.6042H134.651L133.791 8.64185H133.79ZM132.86 11.9L133.165 10.0006L133.484 11.9H132.859H132.86Z" fill="#2C302F"/>
<path d="M137.802 10.4894V9.46454C137.802 9.46454 137.636 8.59004 136.402 8.61299C135.167 8.63595 135.042 9.36125 135.042 9.36125V12.8845C135.042 12.8845 135.167 13.6098 136.402 13.6327C137.636 13.6557 137.802 12.7812 137.802 12.7812V11.5854H136.804V12.6768C136.361 13.1829 136.013 12.6653 136.013 12.6653L136.041 11.1229L136.013 9.58045C136.013 9.58045 136.361 9.06287 136.804 9.56897V10.4905H137.802V10.4894Z" fill="#2C302F"/>
<path d="M140.764 9.40148V8.65552H138.371V11.0506V13.5318H140.764V12.8708H139.328V11.4569H140.473V11.0506V10.6455H139.328V9.40148H140.764Z" fill="#2C302F"/>
<path d="M129.893 17.032V17.3143H130.307V15.4069L129.414 15.4207V15.8683H129.722V16.667C129.722 16.667 129.466 17.0216 129.186 16.6808V14.7149C129.186 14.7149 129.421 14.4073 129.665 14.7149L129.674 15.1338H130.271V14.5829C130.271 14.5829 130.232 14.1422 129.478 14.125C128.724 14.1066 128.58 14.6013 128.58 14.6013V16.8323C128.58 16.8323 128.746 17.3556 129.203 17.3304C129.66 17.3051 129.814 17.0687 129.814 17.0687" fill="#2C302F"/>
<path d="M132.461 15.2349V14.7047C132.461 14.4304 132.191 14.2078 131.856 14.2078H130.729V17.3144H131.352V16.0073H131.652C131.742 16.0073 131.814 16.0646 131.814 16.1346V17.3144H132.461V16.0451C132.461 15.8776 132.337 15.733 132.159 15.6733C132.34 15.5838 132.461 15.422 132.461 15.2349ZM131.799 15.337C131.799 15.4059 131.731 15.461 131.648 15.461H131.337V14.6014H131.648C131.731 14.6014 131.799 14.6576 131.799 14.7253V15.3359V15.337Z" fill="#2C302F"/>
<path d="M133.76 14.1895H133.577C133.128 14.1895 132.763 14.489 132.763 14.8585V16.627C132.763 16.9966 133.128 17.2961 133.577 17.2961H133.76C134.21 17.2961 134.574 16.9966 134.574 16.627V14.8585C134.574 14.489 134.21 14.1895 133.76 14.1895ZM133.936 16.6615C133.936 16.7866 133.813 16.8875 133.661 16.8875C133.508 16.8875 133.386 16.7866 133.386 16.6615V14.8608C133.386 14.7357 133.508 14.6347 133.661 14.6347C133.813 14.6347 133.936 14.7357 133.936 14.8608V16.6615Z" fill="#2C302F"/>
<path d="M136.046 14.1895V16.6833C136.046 16.7682 135.962 16.837 135.858 16.837H135.735C135.632 16.837 135.547 16.7682 135.547 16.6833V14.1895H134.893V16.6465C134.893 17.0241 135.265 17.3294 135.725 17.3294H135.866C136.325 17.3294 136.698 17.023 136.698 16.6465V14.1895H136.043H136.046Z" fill="#2C302F"/>
<path d="M138.269 14.1895V15.8443L137.649 14.1895H137.031V17.2961H137.641V15.4782L138.269 17.2961H138.836V14.1895H138.269Z" fill="#2C302F"/>
<path d="M140.231 14.1895H139.23V17.2961H140.231C140.654 17.2961 140.997 17.0149 140.997 16.6672V14.8184C140.997 14.4718 140.654 14.1895 140.231 14.1895ZM140.335 16.6408C140.335 16.7406 140.237 16.821 140.116 16.821H139.871V14.6187H140.116C140.238 14.6187 140.335 14.699 140.335 14.7988V16.6408Z" fill="#2C302F"/>
<path d="M142.067 19.1483C142.248 18.858 142.72 18.1315 143.133 17.1331C143.346 16.6385 143.532 16.0704 143.671 15.4748C143.814 14.8803 143.883 14.2468 143.876 13.6362C143.878 13.3287 143.849 13.036 143.817 12.7526C143.798 12.6114 143.781 12.4725 143.759 12.3371C143.734 12.2028 143.708 12.0709 143.683 11.9423C143.571 11.4328 143.432 10.9898 143.298 10.6444C143.233 10.4711 143.164 10.323 143.111 10.2002C143.055 10.0774 143.002 9.98332 142.967 9.91561C142.894 9.78248 142.871 9.76412 142.913 9.89265C142.93 9.94315 142.952 10.004 142.979 10.0728C142.993 10.1073 143.007 10.1428 143.022 10.1807C143.036 10.2197 143.049 10.2599 143.064 10.3012C143.095 10.385 143.128 10.4745 143.163 10.5686C143.196 10.6627 143.226 10.7626 143.26 10.8636C143.277 10.9141 143.294 10.9657 143.311 11.0173C143.326 11.069 143.341 11.1218 143.354 11.1734C143.383 11.2779 143.412 11.3834 143.44 11.4856C143.463 11.5889 143.486 11.6899 143.508 11.7863C143.518 11.8345 143.528 11.8815 143.539 11.9274C143.547 11.9733 143.554 12.0181 143.562 12.0617C143.624 12.4048 143.637 12.6412 143.614 12.6171C143.602 12.6057 143.579 12.5299 143.54 12.3727C143.491 12.2178 143.438 11.9791 143.328 11.6543L143.296 11.5039L143.257 11.3559L143.178 11.0598L143.085 10.7694C143.069 10.7212 143.055 10.673 143.038 10.6248L142.984 10.4825C142.849 10.1015 142.675 9.73772 142.49 9.38425C142.393 9.20981 142.298 9.03537 142.189 8.86896C142.087 8.69911 141.971 8.53844 141.857 8.37663C141.622 8.06103 141.377 7.75346 141.104 7.47459C140.974 7.32999 140.828 7.2003 140.691 7.06488L140.472 6.87323L140.363 6.77797L140.249 6.68846C139.953 6.44286 139.632 6.2294 139.308 6.02627C138.653 5.63378 137.958 5.31933 137.235 5.11275C136.876 5.00258 136.507 4.92913 136.139 4.86716C135.954 4.84536 135.77 4.81207 135.584 4.80175L135.305 4.77879L135.025 4.76961C134.282 4.74666 133.538 4.83044 132.818 4.9957C132.727 5.01291 132.639 5.04045 132.55 5.06455C132.46 5.0898 132.371 5.11046 132.283 5.13915C132.107 5.19768 131.93 5.24932 131.759 5.31933C131.412 5.44557 131.077 5.60509 130.749 5.77494C130.588 5.8656 130.425 5.95168 130.269 6.05267C130.11 6.14677 129.958 6.25465 129.806 6.35909C129.507 6.57828 129.212 6.80666 128.943 7.06373C128.121 7.83954 127.454 8.77256 127.005 9.7974C126.553 10.8211 126.318 11.9309 126.318 13.0395C126.311 13.3172 126.342 13.5926 126.361 13.8681C126.363 13.9369 126.376 14.0046 126.386 14.0735L126.417 14.2778C126.44 14.4132 126.452 14.5509 126.489 14.6829L126.583 15.0834C126.596 15.1511 126.621 15.2154 126.642 15.2808L126.705 15.4759L126.767 15.671C126.785 15.7364 126.817 15.7984 126.841 15.8615L126.996 16.2391C127.453 17.2249 128.103 18.112 128.917 18.7937C129.117 18.9739 129.662 19.4938 130.172 19.9138C130.235 19.9666 130.297 20.0205 130.355 20.0733C130.416 20.1215 130.475 20.1697 130.531 20.2145C130.643 20.3063 130.74 20.3947 130.813 20.4727C130.968 20.615 131.028 20.7275 130.914 20.7722C131.119 21.1532 131.132 21.408 130.951 21.5354C130.86 21.5997 130.723 21.6341 130.541 21.6387C130.449 21.641 130.347 21.6364 130.235 21.6249C130.125 21.6077 130.007 21.5813 129.877 21.548C129.359 21.4241 128.719 21.1257 128.056 20.6609C127.393 20.1961 126.72 19.5477 126.158 18.7581C125.591 17.9732 125.138 17.0493 124.855 16.1002C124.568 15.1511 124.451 14.1837 124.45 13.3149C124.456 12.445 124.575 11.6715 124.712 11.0701C124.729 10.9944 124.745 10.9221 124.761 10.8521C124.777 10.7821 124.797 10.7155 124.815 10.6512C124.85 10.5227 124.879 10.4034 124.911 10.2978C124.977 10.0878 125.02 9.9202 125.051 9.80888C125.505 8.57632 126.199 7.43327 127.086 6.46008C127.971 5.48574 129.048 4.6801 130.246 4.10857C132.642 2.95635 135.506 2.78994 138.053 3.69887C139.326 4.14989 140.511 4.85913 141.516 5.77379C142.521 6.68731 143.347 7.80625 143.924 9.04914C144.502 10.2909 144.824 11.6566 144.865 13.0257L144.872 13.2828C144.874 13.3688 144.867 13.4618 144.865 13.5513L144.853 13.8222C144.85 13.9128 144.846 14.0023 144.834 14.0907L144.767 14.6198C144.736 14.7931 144.7 14.9641 144.665 15.1362C144.51 15.8167 144.288 16.4698 144.011 17.086C144.342 16.3091 144.568 15.4805 144.673 14.6198L144.728 13.9691L144.735 13.3092C144.717 12.8891 144.693 12.4702 144.639 12.0514C144.645 12.1363 144.653 12.2224 144.656 12.3084C144.659 12.3945 144.662 12.4817 144.665 12.5689C144.668 12.6562 144.673 12.7434 144.673 12.8317C144.673 12.9201 144.673 13.0085 144.673 13.0969C144.672 13.1864 144.676 13.2724 144.671 13.3654C144.665 13.4584 144.661 13.5525 144.655 13.6466C144.649 13.7407 144.645 13.8348 144.639 13.93C144.632 14.0241 144.616 14.1171 144.606 14.2112C144.515 14.9618 144.336 15.7077 144.076 16.4147C143.817 17.1228 143.487 17.7987 143.104 18.4253C142.72 19.0508 142.286 19.6315 141.805 20.1353C141.995 19.8254 142.016 19.7646 141.937 19.8507C141.856 19.9368 141.68 20.1755 141.445 20.4475C141.386 20.5163 141.328 20.5898 141.264 20.6609C141.198 20.7321 141.132 20.8044 141.065 20.8778C140.998 20.9501 140.933 21.0247 140.864 21.0947C140.794 21.1636 140.724 21.2313 140.657 21.2956C140.59 21.3598 140.526 21.4218 140.464 21.4803C140.398 21.5354 140.338 21.5871 140.283 21.6341C140.171 21.7271 140.079 21.7982 140.018 21.8384C140.191 21.3334 140.578 20.934 140.978 20.5025C141.083 20.3993 141.18 20.2868 141.282 20.1789C141.383 20.0699 141.486 19.962 141.578 19.8472C141.672 19.7336 141.762 19.62 141.847 19.5052C141.927 19.387 142.001 19.2677 142.065 19.1483H142.067Z" fill="#E69246"/>
<path d="M142.47 20.6953C142.473 20.7091 142.474 20.7125 142.475 20.6953C142.473 20.6953 142.473 20.6953 142.47 20.6953Z" fill="#E69246"/>
<path d="M101.3 17.4279L104.308 15.0879C104.733 14.7494 104.933 14.4521 104.906 14.1973L104.781 12.9809C104.757 12.7456 104.508 12.6515 104.034 12.6997L103.779 12.7261C103.304 12.7754 103.079 12.9177 103.104 13.153L103.272 14.7941L99.5173 15.1797L99.3271 13.3263C99.201 12.1006 100.371 11.3604 102.836 11.1068L104.8 10.9048C107.265 10.6512 108.561 11.1378 108.687 12.3634L108.84 13.8496C108.909 14.5198 108.446 15.2394 107.452 16.0083L104.443 18.3483C104.018 18.688 103.819 18.9841 103.845 19.2389L103.852 19.3101L109.343 18.7454L109.524 20.5139L100.108 21.4825L99.9127 19.5866C99.8749 19.2183 99.9551 18.8774 100.152 18.5607C100.349 18.2451 100.732 17.8675 101.301 17.4268L101.3 17.4279Z" fill="#2C302F"/>
<path d="M120.608 17.6012C120.734 18.8281 119.564 19.5671 117.099 19.8208L114.652 20.0721C112.187 20.3257 110.89 19.8391 110.765 18.6135L110.11 12.2177C109.984 10.992 111.154 10.2518 113.619 9.99816L116.066 9.74682C118.531 9.4932 119.828 9.97979 119.954 11.2055L120.609 17.6012H120.608ZM116.019 11.824C115.995 11.5888 115.745 11.4947 115.272 11.5429L114.76 11.5957C114.285 11.645 114.06 11.7873 114.085 12.0226L114.697 17.9937C114.721 18.2301 114.969 18.3231 115.444 18.2749L115.956 18.2221C116.429 18.1739 116.655 18.0316 116.631 17.7952L116.019 11.824Z" fill="#2C302F"/>
<path d="M150.743 15.5688L154.121 13.8049C154.6 13.5478 154.848 13.2908 154.869 13.036L154.963 11.816C154.981 11.5796 154.752 11.4431 154.278 11.4063L154.021 11.3868C153.545 11.3501 153.299 11.4499 153.281 11.6864L153.153 13.3309L149.389 13.0394L149.533 11.1814C149.628 9.95228 150.91 9.43355 153.381 9.62521L155.349 9.77784C157.82 9.9695 159.009 10.6799 158.914 11.909L158.798 13.3986C158.746 14.07 158.162 14.6955 157.047 15.2739L153.669 17.0378C153.19 17.296 152.941 17.5519 152.921 17.8067L152.915 17.8778L158.417 18.3048L158.28 20.0779L148.843 19.3457L148.989 17.4452C149.018 17.0768 149.158 16.7543 149.409 16.4789C149.66 16.2034 150.103 15.9005 150.742 15.5688H150.743Z" fill="#2C302F"/>
<path d="M164.287 12.5392L164.125 14.6244C164.918 14.5051 165.714 14.4764 166.513 14.5383L166.655 14.5498C167.662 14.6279 168.439 14.8402 168.986 15.1868C169.533 15.5333 169.787 15.9534 169.749 16.4446L169.537 19.1817C169.442 20.4108 168.158 20.9295 165.687 20.7379L163.407 20.5611C160.936 20.3695 159.747 19.6591 159.842 18.43L160.338 12.0193C160.434 10.7902 161.716 10.2714 164.187 10.4631L166.383 10.6329C168.854 10.8246 170.042 11.535 169.948 12.7641L169.842 14.1252L165.993 13.8268L166.083 12.678C166.101 12.4416 165.872 12.3051 165.397 12.2683L165.027 12.2396C164.552 12.2029 164.305 12.3028 164.287 12.5392ZM164.007 16.1565L163.824 18.5252C163.805 18.7616 164.034 18.8982 164.509 18.9349L164.879 18.9636C165.354 19.0004 165.601 18.9005 165.62 18.6641L165.785 16.5364C165.794 16.4136 165.748 16.3241 165.647 16.269C165.546 16.2139 165.363 16.176 165.097 16.1554C164.679 16.1232 164.315 16.1232 164.007 16.1554V16.1565Z" fill="#2C302F"/>
<path d="M93.0909 86.0486C93.7499 86.2161 94.0594 86.4961 94.0158 86.8909C93.9436 87.5416 93.8714 88.1923 93.7992 88.8442C93.0244 88.7581 92.2497 88.6698 91.476 88.5791C91.5517 87.9318 91.6273 87.2834 91.7041 86.6361C91.7202 86.5007 91.5907 86.4169 91.3156 86.3848C91.123 86.3619 90.9305 86.3389 90.7379 86.316C90.652 87.0309 90.566 87.7459 90.4812 88.4609C89.7076 88.3679 88.9328 88.2727 88.1592 88.174C88.3976 86.2873 88.636 84.3994 88.8732 82.5127C90.0113 82.6561 91.1482 82.795 92.2875 82.9281C93.7029 83.0934 94.3734 83.5215 94.2955 84.2238C94.2554 84.5888 94.2141 84.9526 94.174 85.3175C94.1247 85.7605 93.7648 86.0049 93.0921 86.0486H93.0909ZM91.9838 84.0976C91.9998 83.9633 91.8715 83.8795 91.5975 83.8462C91.4119 83.8244 91.2262 83.8015 91.0405 83.7797C90.9775 84.303 90.9156 84.8263 90.8526 85.3497C91.0394 85.3726 91.225 85.3944 91.4119 85.4162C91.6858 85.4484 91.8313 85.3967 91.8474 85.2624C91.8932 84.8734 91.9379 84.4855 91.9838 84.0964V84.0976Z" fill="#2C302F"/>
<path d="M95.3593 83.2737C96.777 83.4275 98.1948 83.5732 99.6137 83.7109C99.5804 84.0495 99.5483 84.3869 99.5162 84.7254C98.8595 84.6623 98.2028 84.5969 97.5472 84.5292C97.5037 84.9538 97.4601 85.3784 97.4177 85.8031C98.0492 85.8673 98.6796 85.9305 99.3111 85.9913C99.2778 86.3298 99.2458 86.6672 99.2125 87.0058C98.5799 86.9438 97.9461 86.8807 97.3134 86.8164C97.2676 87.2709 97.2206 87.7242 97.1747 88.1787C97.8486 88.2475 98.5226 88.3141 99.1965 88.3795C99.1644 88.7181 99.1311 89.0555 99.0991 89.394C97.6481 89.254 96.1971 89.1048 94.7461 88.9476C94.9512 87.0563 95.1553 85.165 95.3604 83.2737H95.3593Z" fill="#2C302F"/>
<path d="M102.513 87.7196C102.456 88.3772 102.397 89.0348 102.34 89.6936C101.564 89.6259 100.788 89.5547 100.012 89.4813C100.19 87.5877 100.369 85.6929 100.546 83.7993C101.665 83.9049 102.784 84.0047 103.903 84.1C105.322 84.2205 106.005 84.6268 105.95 85.3314C105.908 85.8651 105.865 86.3987 105.824 86.9324C105.769 87.637 105.024 87.9342 103.589 87.8126C103.231 87.7816 102.872 87.7506 102.514 87.7196H102.513ZM103.64 85.2648C103.651 85.1294 103.52 85.0502 103.247 85.0261C103.083 85.0124 102.918 84.9974 102.754 84.9825C102.702 85.5701 102.651 86.1577 102.599 86.7453C102.764 86.7602 102.929 86.774 103.094 86.7889C103.369 86.813 103.512 86.7568 103.524 86.6214C103.563 86.1692 103.601 85.717 103.64 85.2648Z" fill="#2C302F"/>
<path d="M112.476 84.7298C112.38 86.2918 112.284 87.8548 112.187 89.4168C112.144 90.1214 111.401 90.4313 109.957 90.3349C109.485 90.3027 109.014 90.2706 108.542 90.2362C107.099 90.1329 106.404 89.7232 106.459 89.0185C106.579 87.4577 106.699 85.897 106.819 84.3362C107.583 84.3947 108.349 84.4521 109.113 84.506C109.006 86.0266 108.898 87.5473 108.791 89.0679C108.782 89.2033 108.915 89.2813 109.193 89.3009C109.275 89.3066 109.359 89.3123 109.441 89.3181C109.717 89.3376 109.861 89.279 109.87 89.1436C109.973 87.623 110.076 86.1012 110.179 84.5806C110.945 84.6323 111.709 84.6828 112.475 84.7298H112.476Z" fill="#2C302F"/>
<path d="M117.878 87.7816C118.535 87.9044 118.855 88.1638 118.839 88.5597C118.821 88.9453 118.805 89.3309 118.788 89.7165C118.757 90.4223 118.02 90.7448 116.575 90.6737C115.42 90.6163 114.264 90.5531 113.11 90.4854C113.223 88.5861 113.334 86.6879 113.446 84.7886C114.573 84.8551 115.699 84.916 116.826 84.9722C118.247 85.0422 118.944 85.4244 118.913 86.1313C118.901 86.4136 118.888 86.6959 118.876 86.9783C118.857 87.4235 118.525 87.6921 117.88 87.7816H117.878ZM116.617 86.1451C116.624 86.0097 116.49 85.9351 116.216 85.9201C116.035 85.911 115.854 85.9018 115.673 85.8914C115.649 86.3425 115.626 86.7923 115.602 87.2434C115.783 87.2525 115.965 87.2629 116.146 87.2721C116.421 87.2858 116.562 87.225 116.569 87.0896C116.585 86.7751 116.601 86.4595 116.616 86.1451H116.617ZM115.552 88.1971C115.526 88.6779 115.501 89.1576 115.476 89.6385C115.67 89.6488 115.863 89.6591 116.057 89.6683C116.334 89.6832 116.475 89.6213 116.482 89.4858C116.499 89.1416 116.517 88.7961 116.534 88.4518C116.541 88.3164 116.405 88.2418 116.13 88.2269C115.938 88.2166 115.744 88.2074 115.552 88.1971Z" fill="#2C302F"/>
<path d="M119.893 85.1121C120.658 85.1442 121.425 85.1729 122.191 85.2004C122.136 86.7624 122.081 88.3243 122.026 89.8851C122.585 89.9046 123.146 89.9229 123.705 89.9402C123.695 90.2799 123.684 90.6196 123.674 90.9593C122.334 90.9179 120.995 90.8697 119.657 90.8135C119.736 88.913 119.814 87.0125 119.893 85.1121Z" fill="#2C302F"/>
<path d="M126.937 85.337C126.895 87.2387 126.852 89.1403 126.81 91.0419C126.032 91.0247 125.253 91.004 124.475 90.9822C124.529 89.0806 124.584 87.179 124.638 85.2773C125.405 85.2991 126.17 85.3187 126.937 85.3359V85.337Z" fill="#2C302F"/>
<path d="M131.289 88.5974C132.051 88.6054 132.813 88.6111 133.575 88.6146C133.573 89.1172 133.571 89.6199 133.568 90.1226C133.566 90.8284 132.841 91.1807 131.395 91.1669C130.918 91.1623 130.44 91.1566 129.961 91.1497C128.514 91.129 127.799 90.7595 127.813 90.0537C127.837 88.8257 127.861 87.5978 127.885 86.3698C127.899 85.6629 128.617 85.3255 130.041 85.3461C130.5 85.353 130.96 85.3576 131.421 85.3633C132.843 85.3771 133.554 85.7317 133.551 86.4387C133.549 86.8839 133.548 87.3304 133.546 87.7757C132.786 87.7722 132.025 87.7665 131.265 87.7584C131.269 87.3533 131.273 86.9482 131.277 86.5442C131.279 86.4088 131.142 86.3388 130.868 86.3354C130.78 86.3354 130.693 86.3331 130.605 86.3319C130.331 86.3285 130.192 86.3939 130.19 86.5305C130.174 87.677 130.159 88.8234 130.143 89.9711C130.14 90.1076 130.279 90.1765 130.555 90.1799C130.655 90.1811 130.755 90.1822 130.854 90.1834C131.132 90.1868 131.272 90.1203 131.273 89.9837C131.277 89.5212 131.282 89.0599 131.288 88.5974H131.289Z" fill="#2C302F"/>
<path d="M142.733 90.0504C142.748 90.7562 142.031 91.1257 140.586 91.1475C140.085 91.1544 139.586 91.1613 139.085 91.1659C137.638 91.1808 136.914 90.8273 136.912 90.1227C136.906 88.8947 136.9 87.6656 136.895 86.4376C136.892 85.7307 137.602 85.376 139.025 85.3623C139.518 85.3577 140.011 85.3508 140.504 85.3439C141.926 85.3233 142.645 85.6595 142.659 86.3665C142.685 87.5944 142.709 88.8224 142.734 90.0504H142.733ZM140.355 86.5271C140.352 86.3906 140.215 86.3251 139.94 86.3286C139.83 86.3297 139.72 86.3309 139.611 86.3332C139.337 86.3366 139.201 86.4055 139.202 86.542C139.214 87.6885 139.227 88.835 139.238 89.9827C139.239 90.1192 139.379 90.1846 139.657 90.1823C139.768 90.1812 139.879 90.18 139.989 90.1778C140.266 90.1743 140.404 90.1043 140.402 89.9689C140.386 88.8224 140.37 87.6759 140.354 86.5294L140.355 86.5271Z" fill="#2C302F"/>
<path d="M143.59 85.3347C144.986 85.3025 146.382 85.2635 147.777 85.2153C147.788 85.555 147.8 85.8947 147.811 86.2333C147.179 86.2551 146.549 86.2746 145.918 86.293C145.93 86.7382 145.943 87.1835 145.957 87.63C146.563 87.6127 147.168 87.5932 147.774 87.5726C147.786 87.9123 147.797 88.252 147.809 88.5905C147.201 88.6112 146.594 88.6307 145.986 88.6479C146.009 89.4249 146.031 90.2018 146.054 90.9788C145.276 91.0017 144.498 91.0212 143.719 91.0396C143.676 89.1379 143.633 87.2363 143.59 85.3347Z" fill="#2C302F"/>
<path d="M157.204 90.491C156.382 90.5392 155.56 90.5851 154.738 90.6276C154.297 89.7496 153.859 88.8717 153.424 87.9926C153.467 88.8912 153.512 89.7898 153.555 90.6884C152.777 90.7263 152 90.7618 151.222 90.7951C151.141 88.8946 151.06 86.9942 150.979 85.0937C151.745 85.0604 152.511 85.026 153.277 84.9881C153.321 85.8809 153.364 86.7738 153.408 87.6667C153.794 86.7532 154.177 85.8385 154.557 84.9227C155.35 84.8814 156.143 84.8366 156.937 84.7896C156.488 85.7524 156.037 86.7141 155.581 87.6758C156.118 88.6158 156.66 89.5534 157.205 90.491H157.204Z" fill="#2C302F"/>
<path d="M163.454 89.0576C163.508 89.7611 162.814 90.1708 161.37 90.2718C160.87 90.3062 160.37 90.3407 159.871 90.3739C158.426 90.4692 157.684 90.157 157.641 89.4524C157.568 88.2267 157.495 86.9999 157.421 85.7742C157.379 85.0684 158.069 84.6748 159.49 84.5818C159.982 84.5497 160.473 84.5164 160.965 84.482C162.385 84.3821 163.122 84.6782 163.176 85.384C163.269 86.6086 163.36 87.8342 163.453 89.0588L163.454 89.0576ZM160.884 85.6721C160.875 85.5367 160.732 85.4781 160.458 85.4976C160.348 85.5057 160.24 85.5126 160.13 85.5195C159.856 85.5378 159.723 85.6147 159.732 85.7501C159.807 86.8943 159.883 88.0385 159.959 89.1827C159.968 89.3181 160.11 89.3767 160.387 89.3583C160.499 89.3514 160.609 89.3434 160.72 89.3353C160.996 89.317 161.13 89.2389 161.121 89.1035C161.042 87.9593 160.963 86.8151 160.883 85.6709L160.884 85.6721Z" fill="#2C302F"/>
<path d="M168.893 86.9103C169.573 86.9413 169.931 87.1536 169.968 87.5484C170.029 88.2003 170.089 88.8521 170.15 89.5051C169.374 89.5774 168.598 89.6474 167.822 89.7151C167.766 89.0656 167.709 88.416 167.653 87.7665C167.641 87.631 167.497 87.5759 167.222 87.5989C167.029 87.615 166.836 87.6322 166.643 87.6482C166.704 88.3655 166.765 89.0839 166.825 89.8012C166.049 89.8666 165.272 89.9298 164.496 89.9906C164.349 88.0935 164.2 86.1976 164.052 84.3006C165.193 84.2111 166.335 84.1158 167.476 84.016C168.895 83.8909 169.638 84.1744 169.703 84.8779C169.738 85.2428 169.771 85.6089 169.805 85.9739C169.847 86.418 169.544 86.7301 168.894 86.9092L168.893 86.9103ZM167.416 85.2256C167.404 85.0902 167.261 85.0351 166.987 85.058C166.801 85.0741 166.614 85.0902 166.429 85.1062C166.474 85.6319 166.517 86.1563 166.562 86.6819C166.749 86.6659 166.935 86.6498 167.122 86.6337C167.397 86.6108 167.529 86.5305 167.516 86.395C167.482 86.0048 167.449 85.6158 167.414 85.2256H167.416Z" fill="#2C302F"/>
<path d="M170.554 83.7339C171.973 83.5973 173.39 83.4527 174.808 83.3C174.845 83.6375 174.88 83.976 174.917 84.3134C174.261 84.3846 173.605 84.4534 172.949 84.52C172.993 84.9446 173.036 85.3692 173.08 85.7939C173.711 85.7296 174.342 85.663 174.973 85.5953C175.01 85.9327 175.045 86.2713 175.082 86.6087C174.449 86.6764 173.817 86.7429 173.184 86.8084C173.23 87.2628 173.277 87.7161 173.324 88.1706C173.998 88.1018 174.672 88.0306 175.344 87.9583C175.381 88.2957 175.418 88.6343 175.453 88.9717C174.004 89.1277 172.553 89.2758 171.1 89.4158C170.919 87.5222 170.737 85.6286 170.556 83.735L170.554 83.7339Z" fill="#2C302F"/>
<path d="M180.038 82.6987C180.769 84.5258 181.508 86.3505 182.254 88.1741C181.487 88.2716 180.718 88.3658 179.95 88.4587C179.856 88.1913 179.762 87.9228 179.669 87.6554C179.183 87.7139 178.698 87.7701 178.212 87.8275C178.189 88.1098 178.165 88.391 178.141 88.6722C177.439 88.7537 176.736 88.8317 176.032 88.9086C176.335 86.9622 176.629 85.0147 176.917 83.0671C177.958 82.9489 178.998 82.8261 180.038 82.6987ZM178.533 84.2744C178.461 85.1202 178.386 85.9661 178.312 86.8119C178.659 86.7717 179.005 86.7304 179.353 86.6891C179.079 85.8846 178.805 85.0789 178.533 84.2744Z" fill="#2C302F"/>
</g>
<defs>
<clipPath id="clip0_67_965">
<rect width="270" height="98" fill="white"/>
</clipPath>
</defs>
</svg>
