<svg width="50" height="50" viewBox="0 0 50 50" fill="none" xmlns="http://www.w3.org/2000/svg">
<circle cx="24.7537" cy="24.7537" r="24.2537" stroke="black" stroke-opacity="0.65"/>
<g clip-path="url(#clip0_172_87)">
<path d="M26.2943 21.1941V17.5547H21.5815L21.8985 21.1941H26.2943Z" fill="#F2EFEB"/>
<path d="M26.2941 21.5907H21.901C21.6966 21.5907 21.5263 21.4345 21.5106 21.2281L21.1937 17.5887C21.1832 17.4775 21.2198 17.369 21.2958 17.2869C21.3718 17.2049 21.4766 17.1572 21.5866 17.1572H26.2993C26.5167 17.1572 26.6923 17.3346 26.6923 17.5543V21.1937C26.6923 21.4134 26.5167 21.5907 26.2993 21.5907H26.2941ZM22.2598 20.7966H25.9011V17.9513H22.011L22.2598 20.7966Z" fill="#020202"/>
<path d="M30.6876 21.1941L31.0045 17.5547H26.2944V21.1941H30.6876Z" fill="#F2EFEB"/>
<path d="M30.6874 21.5907H26.2943C26.0769 21.5907 25.9014 21.4134 25.9014 21.1937V17.5543C25.9014 17.3346 26.0769 17.1572 26.2943 17.1572H31.007C31.1171 17.1572 31.2218 17.2049 31.2978 17.2869C31.3738 17.369 31.4078 17.4801 31.4 17.5887L31.083 21.2281C31.0647 21.4319 30.8944 21.5907 30.6927 21.5907H30.6874ZM26.6873 20.7966H30.3285L30.5774 17.9513H26.6873V20.7966Z" fill="#020202"/>
<path d="M21.8989 21.1943L22.2185 24.8338H26.2947V21.1943H21.8989Z" fill="#F2EFEB"/>
<path d="M26.2945 25.2303H22.2183C22.014 25.2303 21.8437 25.0742 21.828 24.8677L21.511 21.2283C21.5006 21.1171 21.5372 21.0086 21.6132 20.9266C21.6892 20.8445 21.794 20.7969 21.904 20.7969H26.2971C26.5145 20.7969 26.69 20.9742 26.69 21.1939V24.8333C26.69 25.053 26.5145 25.2303 26.2971 25.2303H26.2945ZM22.5772 24.4363H25.8989V21.5909H22.3284L22.5772 24.4363Z" fill="#020202"/>
<path d="M35.1644 21.1941L35.7984 17.5547H31.0045L30.6875 21.1941H35.1644Z" fill="#F2EFEB"/>
<path d="M35.1645 21.5907H30.6875C30.5775 21.5907 30.4727 21.5431 30.3967 21.461C30.3208 21.3789 30.2867 21.2678 30.2946 21.1593L30.6115 17.5198C30.6299 17.316 30.8001 17.1572 31.0019 17.1572H35.7958C35.911 17.1572 36.0211 17.2102 36.097 17.3002C36.173 17.3901 36.2044 17.5093 36.1835 17.6231L35.5495 21.2625C35.5155 21.4531 35.3531 21.5907 35.1618 21.5907H35.1645ZM31.1171 20.7966H34.8344L35.3295 17.9513H31.3634L31.1145 20.7966H31.1171Z" fill="#020202"/>
<path d="M21.5815 17.5547H16.7876L17.4215 21.1941H21.8985L21.5815 17.5547Z" fill="#F2EFEB"/>
<path d="M21.8985 21.5907H17.4216C17.2303 21.5907 17.0679 21.4531 17.0339 21.2625L16.3999 17.6231C16.3789 17.5066 16.4104 17.3901 16.4864 17.3002C16.5597 17.2102 16.6723 17.1572 16.7876 17.1572H21.5815C21.7859 17.1572 21.9561 17.3134 21.9719 17.5198L22.2888 21.1593C22.2993 21.2704 22.2626 21.3789 22.1867 21.461C22.1107 21.5431 22.0059 21.5907 21.8959 21.5907H21.8985ZM17.7516 20.7966H21.4689L21.22 17.9513H17.2539L17.749 20.7966H17.7516Z" fill="#020202"/>
<path d="M26.2944 24.8338H30.368L30.6876 21.1943H26.2944V24.8338Z" fill="#F2EFEB"/>
<path d="M30.368 25.2303H26.2919C26.0744 25.2303 25.8989 25.053 25.8989 24.8333V21.1939C25.8989 20.9742 26.0744 20.7969 26.2919 20.7969H30.685C30.795 20.7969 30.8998 20.8445 30.9758 20.9266C31.0517 21.0086 31.0858 21.1198 31.0779 21.2283L30.761 24.8677C30.7426 25.0715 30.5723 25.2303 30.3706 25.2303H30.368ZM26.6874 24.4363H30.0091L30.258 21.5909H26.6874V24.4363Z" fill="#020202"/>
<path d="M30.0508 28.4734H33.8964L34.5303 24.834H30.3678L30.0508 28.4734Z" fill="#F2EFEB"/>
<path d="M33.8964 28.87H30.0508C29.9408 28.87 29.836 28.8223 29.76 28.7403C29.684 28.6582 29.65 28.5471 29.6578 28.4386L29.9748 24.7991C29.9932 24.5953 30.1634 24.4365 30.3651 24.4365H34.5277C34.643 24.4365 34.753 24.4895 34.829 24.5795C34.905 24.6694 34.9364 24.7886 34.9154 24.9024L34.2815 28.5418C34.2474 28.7324 34.085 28.87 33.8938 28.87H33.8964ZM30.4804 28.0759H33.569L34.0641 25.2306H30.7293L30.4804 28.0759Z" fill="#020202"/>
<path d="M30.6873 21.1943L30.3677 24.8338H34.5303L35.1642 21.1943H30.6873Z" fill="#F2EFEB"/>
<path d="M34.5303 25.2303H30.3677C30.2577 25.2303 30.1529 25.1827 30.0769 25.1006C30.0009 25.0186 29.9669 24.9074 29.9747 24.7989L30.2917 21.1595C30.3101 20.9557 30.4803 20.7969 30.682 20.7969H35.159C35.2742 20.7969 35.3843 20.8498 35.4602 20.9398C35.5362 21.0298 35.5676 21.1489 35.5467 21.2627L34.9127 24.9021C34.8787 25.0927 34.7163 25.2303 34.525 25.2303H34.5303ZM30.7973 24.4363H34.2002L34.6953 21.5909H31.0462L30.7973 24.4363Z" fill="#020202"/>
<path d="M21.8983 21.1943H17.4214L18.0553 24.8338H22.2179L21.8983 21.1943Z" fill="#F2EFEB"/>
<path d="M22.2179 25.2303H18.0554C17.8641 25.2303 17.7017 25.0927 17.6676 24.9021L17.0337 21.2627C17.0127 21.1463 17.0442 21.0298 17.1201 20.9398C17.1935 20.8498 17.3061 20.7969 17.4214 20.7969H21.8983C22.1027 20.7969 22.273 20.953 22.2887 21.1595L22.6056 24.7989C22.6161 24.9101 22.5795 25.0186 22.5035 25.1006C22.4275 25.1827 22.3227 25.2303 22.2127 25.2303H22.2179ZM18.3854 24.4363H21.7883L21.5395 21.5909H17.8903L18.3854 24.4363Z" fill="#020202"/>
<path d="M26.2944 24.834V28.4734H30.051L30.368 24.834H26.2944Z" fill="#F2EFEB"/>
<path d="M30.0509 28.87H26.2943C26.0769 28.87 25.9014 28.6927 25.9014 28.473V24.8336C25.9014 24.6139 26.0769 24.4365 26.2943 24.4365H30.3705C30.4805 24.4365 30.5853 24.4842 30.6612 24.5662C30.7372 24.6483 30.7713 24.7594 30.7634 24.868L30.4464 28.5074C30.4281 28.7112 30.2578 28.87 30.0561 28.87H30.0509ZM26.6873 28.0759H29.692L29.9408 25.2306H26.6873V28.0759Z" fill="#020202"/>
<path d="M18.0557 24.834L18.6896 28.4734H22.5352L22.2183 24.834H18.0557Z" fill="#F2EFEB"/>
<path d="M22.5352 28.87H18.6896C18.4984 28.87 18.336 28.7324 18.3019 28.5418L17.668 24.9024C17.647 24.7859 17.6785 24.6694 17.7544 24.5795C17.8278 24.4895 17.9404 24.4365 18.0557 24.4365H22.2183C22.4226 24.4365 22.5929 24.5927 22.6086 24.7991L22.9256 28.4386C22.936 28.5497 22.8994 28.6582 22.8234 28.7403C22.7474 28.8223 22.6426 28.87 22.5326 28.87H22.5352ZM19.0197 28.0759H22.1082L21.8594 25.2306H18.5246L19.0197 28.0759Z" fill="#020202"/>
<path d="M22.2183 24.834L22.5352 28.4734H26.2944V24.834H22.2183Z" fill="#F2EFEB"/>
<path d="M26.2942 28.87H22.5377C22.3333 28.87 22.1631 28.7138 22.1473 28.5074L21.8304 24.868C21.8199 24.7568 21.8566 24.6483 21.9325 24.5662C22.0085 24.4842 22.1133 24.4365 22.2233 24.4365H26.2995C26.5169 24.4365 26.6924 24.6139 26.6924 24.8336V28.473C26.6924 28.6927 26.5169 28.87 26.2995 28.87H26.2942ZM22.8966 28.0759H25.9013V25.2306H22.6477L22.8966 28.0759Z" fill="#020202"/>
<path d="M34.3075 32.0221H18.1523C17.6441 32.0221 17.2066 31.6515 17.1202 31.146L14.8594 18.052H11.0479C10.4689 18.052 10 17.5783 10 16.9933C10 16.4084 10.4689 15.9346 11.0479 15.9346H15.7396C16.2478 15.9346 16.6853 16.3051 16.7717 16.8107L19.0325 29.9046H34.3075C34.8865 29.9046 35.3554 30.3784 35.3554 30.9634C35.3554 31.5483 34.8865 32.0221 34.3075 32.0221Z" fill="black"/>
<path d="M34.305 31.3608H18.1497C17.9585 31.3608 17.7961 31.2232 17.762 31.0326L15.407 17.3907H11.0453C10.8279 17.3907 10.6523 17.2134 10.6523 16.9937C10.6523 16.774 10.8279 16.5967 11.0453 16.5967H15.737C15.9283 16.5967 16.0907 16.7343 16.1248 16.9249L18.4798 30.5667H34.305C34.5224 30.5667 34.6979 30.7441 34.6979 30.9638C34.6979 31.1835 34.5224 31.3608 34.305 31.3608Z" fill="white"/>
<path d="M19.9517 36.8606C21.2798 36.8606 22.3565 35.7727 22.3565 34.4308C22.3565 33.0888 21.2798 32.001 19.9517 32.001C18.6236 32.001 17.5469 33.0888 17.5469 34.4308C17.5469 35.7727 18.6236 36.8606 19.9517 36.8606Z" fill="white"/>
<path d="M19.9519 37.2545C18.4089 37.2545 17.1567 35.9867 17.1567 34.4303C17.1567 32.874 18.4115 31.6035 19.9519 31.6035C21.4922 31.6035 22.7496 32.8714 22.7496 34.4303C22.7496 35.9893 21.4948 37.2545 19.9519 37.2545ZM19.9519 32.3976C18.8438 32.3976 17.9426 33.3081 17.9426 34.4303C17.9426 35.5526 18.8438 36.4605 19.9519 36.4605C21.06 36.4605 21.9638 35.55 21.9638 34.4303C21.9638 33.3107 21.0626 32.3976 19.9519 32.3976Z" fill="#050606"/>
<path d="M19.9517 35.5764C20.5781 35.5764 21.086 35.0632 21.086 34.4303C21.086 33.7973 20.5781 33.2842 19.9517 33.2842C19.3252 33.2842 18.8174 33.7973 18.8174 34.4303C18.8174 35.0632 19.3252 35.5764 19.9517 35.5764Z" fill="#050606"/>
<path d="M32.3716 36.8606C33.6998 36.8606 34.7764 35.7727 34.7764 34.4308C34.7764 33.0888 33.6998 32.001 32.3716 32.001C31.0435 32.001 29.9668 33.0888 29.9668 34.4308C29.9668 35.7727 31.0435 36.8606 32.3716 36.8606Z" fill="white"/>
<path d="M32.3715 37.2545C30.8285 37.2545 29.5737 35.9867 29.5737 34.4303C29.5737 32.874 30.8285 31.6035 32.3715 31.6035C33.9145 31.6035 35.1666 32.8714 35.1666 34.4303C35.1666 35.9893 33.9118 37.2545 32.3715 37.2545ZM32.3715 32.3976C31.2634 32.3976 30.3596 33.3081 30.3596 34.4303C30.3596 35.5526 31.2608 36.4605 32.3715 36.4605C33.4822 36.4605 34.3808 35.55 34.3808 34.4303C34.3808 33.3107 33.4796 32.3976 32.3715 32.3976Z" fill="#050606"/>
<path d="M32.3716 35.5764C32.9981 35.5764 33.5059 35.0632 33.5059 34.4303C33.5059 33.7973 32.9981 33.2842 32.3716 33.2842C31.7451 33.2842 31.2373 33.7973 31.2373 34.4303C31.2373 35.0632 31.7451 35.5764 32.3716 35.5764Z" fill="#050606"/>
<path d="M35.7981 21.2362C38.1187 21.2362 40 19.3354 40 16.9907C40 14.6459 38.1187 12.7451 35.7981 12.7451C33.4774 12.7451 31.5962 14.6459 31.5962 16.9907C31.5962 19.3354 33.4774 21.2362 35.7981 21.2362Z" fill="#20515D"/>
<path d="M38.0822 16.5776H36.1908V14.6666C36.1908 14.4469 36.0153 14.2695 35.7979 14.2695C35.5804 14.2695 35.4049 14.4469 35.4049 14.6666V16.5776H33.5135C33.2961 16.5776 33.1206 16.7549 33.1206 16.9746C33.1206 17.1943 33.2961 17.3716 33.5135 17.3716H35.4049V19.2827C35.4049 19.5023 35.5804 19.6797 35.7979 19.6797C36.0153 19.6797 36.1908 19.5023 36.1908 19.2827V17.3716H38.0822C38.2996 17.3716 38.4751 17.1943 38.4751 16.9746C38.4751 16.7549 38.2996 16.5776 38.0822 16.5776Z" fill="white"/>
</g>
<defs>
<clipPath id="clip0_172_87">
<rect width="30" height="24.5098" fill="white" transform="translate(10 12.7451)"/>
</clipPath>
</defs>
</svg>
