<svg width="34" height="34" viewBox="0 0 34 34" fill="none" xmlns="http://www.w3.org/2000/svg">
<g clip-path="url(#clip0_67_306)">
<path d="M17 34C26.3888 34 34 26.3888 34 17C34 7.61116 26.3888 0 17 0C7.61116 0 0 7.61116 0 17C0 26.3888 7.61116 34 17 34Z" fill="#DF7F2C"/>
<path d="M16.03 21.145C12.6787 21.145 9.94824 18.4181 9.94824 15.0633C9.94824 11.7084 12.6752 8.98153 16.03 8.98153C19.3848 8.98153 22.1118 11.7084 22.1118 15.0633C22.1118 18.4181 19.3848 21.145 16.03 21.145ZM16.03 10.3926C13.4548 10.3926 11.3593 12.4881 11.3593 15.0633C11.3593 17.6385 13.4548 19.734 16.03 19.734C18.6052 19.734 20.7007 17.6385 20.7007 15.0633C20.7007 12.4881 18.6052 10.3926 16.03 10.3926Z" fill="white"/>
<path d="M24.6941 23.7555C24.5142 23.7555 24.3343 23.685 24.1967 23.5474L19.6566 19.0073C19.3814 18.7321 19.3814 18.2841 19.6566 18.0089C19.9317 17.7338 20.3797 17.7338 20.6549 18.0089L25.1951 22.5491C25.4702 22.8242 25.4702 23.2723 25.1951 23.5474C25.0575 23.685 24.8776 23.7555 24.6977 23.7555H24.6941Z" fill="white"/>
</g>
<defs>
<clipPath id="clip0_67_306">
<rect width="34" height="34" fill="white"/>
</clipPath>
</defs>
</svg>
